<?xml version="1.0" encoding="utf-8"?>
<!-- Generator: Adobe Illustrator 16.0.0, SVG Export Plug-In . SVG Version: 6.00 Build 0)  -->
<!DOCTYPE svg PUBLIC "-//W3C//DTD SVG 1.1//EN" "http://www.w3.org/Graphics/SVG/1.1/DTD/svg11.dtd">
<svg xmlns="http://www.w3.org/2000/svg" xmlns:xlink="http://www.w3.org/1999/xlink" version="1.1" id="variety_x5F_of_x5F_data" x="0px" y="0px" width="512" height="512" viewBox="0 0 512 512" enable-background="new 0 0 512 512" xml:space="preserve">
<g>
	<path fill="#7ED4F8" d="M299.629,52.575v120.658c0,5.176-4.188,9.385-9.361,9.385h-88.779c-5.176,0-9.385-4.209-9.385-9.385V52.575   c0-5.174,4.209-9.383,9.385-9.383h88.779C295.441,43.192,299.629,47.401,299.629,52.575z"/>
	<g>
		<path fill="#7ED4F8" d="M230.818,201.31h80.402c3.727,0,6.75-3.023,6.75-6.75V86.308c0-3.727-3.023-6.75-6.75-6.75h-80.402    c-3.729,0-6.75,3.023-6.75,6.75V194.56C224.068,198.286,227.09,201.31,230.818,201.31z"/>
		<path fill="#007FD8" d="M230.813,68.054c-10.051,0-18.24,8.189-18.24,18.264v96.301h11.5V86.317c0-3.727,3.014-6.764,6.74-6.764    h68.816v-11.5H230.813z"/>
	</g>
	<path fill="#61D0A9" d="M504.379,327.886c0,0.311,0.002,0.674,0,1.08c-0.025,17.574-0.113,121.605-0.113,121.717   c0,10.004-26.037,18.125-58.121,18.125C414.035,468.829,388,460.71,388,450.728l0.254-122.727c3.471,2.07,7.795,4.002,13.201,5.703   c12.145,3.773,28.061,5.865,44.828,5.865C467.234,339.569,490.441,336.235,504.379,327.886z"/>
	<path fill="#299092" d="M504.359,345.021c-2.689,9.199-27.748,16.721-58.039,16.721c0,0-0.021,0-0.045,0   c-30.613,0-55.826-7.359-58.057-16.721c0,0-0.014,8.922-0.037,17.777c3.496,2.117,7.725,4.004,13.268,5.729   c12.145,3.795,28.082,5.865,44.826,5.865c20.885,0,44.107-3.355,58.066-11.658C504.32,354.845,504.359,346.7,504.359,345.021z"/>
	<path fill="#299092" d="M504.326,381.935c-2.689,9.201-27.746,16.721-58.037,16.721c0,0-0.023,0-0.047,0   c-30.611,0-55.869-7.406-58.1-16.766c0,0-0.014,8.941-0.037,17.797c3.496,2.115,7.768,4.029,13.311,5.754   c12.145,3.795,28.082,5.865,44.826,5.865c20.885,0,44.107-3.354,58.068-11.658C504.287,391.759,504.326,383.612,504.326,381.935z"/>
	<path fill="#299092" d="M504.297,416.009c-2.689,9.199-27.748,16.721-58.039,16.721c0,0-0.021,0-0.045,0   c-30.613,0-55.91-7.445-58.143-16.805c0,0-0.014,8.957-0.035,17.813c3.498,2.115,7.807,4.051,13.352,5.775   c12.145,3.797,28.082,5.867,44.826,5.867c20.885,0,44.105-3.355,58.066-11.658C504.258,425.833,504.297,417.688,504.297,416.009z"/>
	<g>
		<path fill="#BBEBDA" d="M504.449,308.796c0,0.322-0.023,0.621-0.068,0.943c-1.564,9.568-26.98,17.18-58.053,17.18    c-31.441,0-57.039-7.75-58.098-17.479c-0.021-0.209-0.047-0.414-0.047-0.621c0-0.209,0.025-0.414,0.047-0.621    c0.254-2.369,1.955-4.6,4.83-6.625c8.992-6.395,29.463-10.855,53.244-10.855c23.83-0.023,44.299,4.439,53.27,10.832    c2.76,1.932,4.438,4.072,4.807,6.326C504.426,308.175,504.449,308.474,504.449,308.796z"/>
		<path fill="#299092" d="M504.381,327.862v0.023c-13.938,8.35-37.146,11.684-58.098,11.684c-16.768,0-32.684-2.092-44.828-5.865    c-5.406-1.701-9.73-3.633-13.201-5.703h-0.023V309.44c1.059,9.729,26.656,17.479,58.098,17.479    c31.072,0,56.488-7.611,58.053-17.18C504.381,316.685,504.357,324.206,504.381,327.862z"/>
	</g>
	<g>
		<path fill="#FFCFA7" d="M146.24,65.479v90.436c0,3.336-2.713,6.025-6.049,6.025H13.6c-3.336,0-6.049-2.689-6.049-6.025V65.479    c0-3.336,2.713-6.051,6.049-6.051h126.592c3.152,0,5.75,2.416,6.004,5.498C146.24,65.11,146.24,65.296,146.24,65.479z"/>
		<path fill="#FF876B" d="M146.195,64.927l-69.299,45.748L7.551,66.515v14.996l62.561,39.834c2.068,1.334,4.439,1.98,6.785,1.98    c2.438,0,4.875-0.691,6.969-2.094l62.375-41.17V65.479C146.24,65.296,146.24,65.11,146.195,64.927z"/>
	</g>
	<path fill="#61D0A9" d="M496.826,58.909H372.955c-4.088,0-7.404,3.313-7.404,7.4v89.119c0,4.088,3.316,7.4,7.404,7.4h46.123   c1.469,0,2.887,0.541,3.982,1.518l18.846,16.783c1.83,1.631,4.727,0.332,4.727-2.119v-13.928c0-1.244,1.01-2.254,2.254-2.254   h47.939c4.088,0,7.404-3.314,7.404-7.4V66.31C504.23,62.222,500.914,58.909,496.826,58.909z"/>
	<rect x="245.209" y="119.513" fill="#007FD8" width="54.422" height="12.65"/>
	<rect x="271.018" y="144.726" fill="#007FD8" width="28.613" height="12.65"/>
	<path fill="#7ED4F8" d="M108.146,462.509H17.883c-5.699,0-10.322-4.623-10.322-10.322V287.702c0-5.701,4.623-10.322,10.322-10.322   h90.264c5.703,0,10.324,4.621,10.324,10.322v164.484C118.471,457.886,113.85,462.509,108.146,462.509z"/>
	<path fill="#D8F2FD" d="M22.779,429.69V297.649c0-2.615,2.121-4.736,4.738-4.736h70.996c2.619,0,4.738,2.121,4.738,4.736V429.69   c0,2.617-2.119,4.738-4.738,4.738H27.518C24.9,434.429,22.779,432.308,22.779,429.69z"/>
	<circle fill="#007FD8" cx="63.016" cy="448.729" r="7.971"/>
	<path fill="#FFCFA7" d="M248.477,294.651v153.824c-39.652-3.244-70.816-36.432-70.816-76.912S208.824,297.894,248.477,294.651z"/>
	<path fill="#61D0A9" d="M318.236,327.634l-57.109,32.98v-65.963C284.793,296.56,305.445,309.163,318.236,327.634z"/>
	<path fill="#7ED4F8" d="M331.967,371.563c0,40.502-31.188,73.691-70.84,76.912V375.22l63.455-36.639   C329.322,348.587,331.967,359.765,331.967,371.563z"/>
	<g>
		<path fill="#007FD8" d="M324.582,338.581l-63.455,36.639v73.256c-2.072,0.16-4.188,0.252-6.303,0.252    c-2.139,0-4.254-0.092-6.348-0.252V294.651c2.094-0.162,4.209-0.254,6.348-0.254c2.115,0,4.23,0.092,6.303,0.254v65.963    l57.109-32.98C320.65,331.083,322.766,334.763,324.582,338.581z"/>
	</g>
	<rect x="38.459" y="314.278" fill="#007FD8" width="53.311" height="12.65"/>
	<rect x="38.459" y="338.95" fill="#007FD8" width="53.311" height="12.648"/>
	<rect x="38.459" y="363.62" fill="#007FD8" width="32.957" height="12.648"/>
	<circle fill="#299092" cx="399.068" cy="112.905" r="8.557"/>
	<circle fill="#299092" cx="434.892" cy="112.905" r="8.558"/>
	<circle fill="#299092" cx="470.713" cy="112.905" r="8.557"/>
</g>
</svg>
