<svg width="745" height="98" viewBox="0 0 745 98" fill="none" xmlns="http://www.w3.org/2000/svg"> <path d="M551.15 76.6C555.35 76.7 558.75 73.4 558.85 69.2C558.95 65 555.65 61.6 551.45 61.5C547.25 61.4 543.85 64.6999 543.75 68.8999V69C543.75 73.2 547.05 76.5 551.15 76.6Z" /> <path d="M126.55 74.6C123.35 73.3 120.45 71.3 118.15 68.7C113.25 63.2 110.65 56.1 110.75 48.7C110.75 44.9 111.35 41.2 112.45 37.6C113.55 34.3 115.35 31.2 117.65 28.7C119.95 26.2 122.75 24.2 125.85 22.8C129.25 21.3 132.95 20.6 136.75 20.6C139.85 20.5 142.95 21 145.85 22C148.45 23 150.85 24.3 153.05 26C155.15 27.6 156.85 29.7 157.95 32.1C159.25 34.6 160.15 37.2 160.45 40H146.85C146.45 37.7 145.25 35.6 143.55 34.1C141.75 32.5 139.55 31.7 137.15 31.7C132.85 31.7 129.75 33.3 127.65 36.2C125.55 39.1 124.55 43.3 124.55 48.5C124.55 53.7 125.55 57.6 127.65 60.8C129.55 64 132.85 65.3 137.15 65.3C139.65 65.4 142.15 64.6 144.15 63.1C146.05 61.3 147.35 58.8 147.65 56.2H161.25C161.05 58.9 160.35 61.6 159.15 64.1C156.75 69.1 152.45 73.1 147.15 75C144.05 76.1 140.85 76.6 137.65 76.6C133.85 76.7 130.05 76.1 126.55 74.6Z" /> <path d="M183.05 28.7C184.75 26.2 186.95 23.9999 189.45 22.3999C192.15 20.8999 195.25 20.1 198.35 20.2C200.85 20.2 203.45 20.6999 205.75 21.7999C207.85 22.7999 209.85 24.1999 211.35 25.8999C212.95 27.7999 214.15 29.9 215.05 32.2C216.05 34.8 216.45 37.5 216.45 40.3V75.0999H202.45V42.3C202.55 39.7 201.75 37.2 200.15 35.2C198.45 33.3 195.95 32.2999 193.35 32.3999C190.45 32.2999 187.65 33.6 185.75 35.8C183.65 38.3 182.55 41.4 182.65 44.7V75.2H168.65V0.699951H182.65V28.8H183.05V28.7Z" /> <path d="M239.45 74.5999C236.15 73.2999 233.25 71.3 230.95 68.7C228.55 66.1 226.75 62.9999 225.75 59.5999C224.55 55.9999 223.95 52.2999 223.95 48.4999C223.85 44.6999 224.55 40.9999 225.85 37.3999C227.15 34.1999 228.85 31.1999 231.05 28.4999C233.35 25.9999 236.15 23.9999 239.25 22.5999C242.55 21.0999 246.15 20.4 249.75 20.4C257.25 20.2 264.35 23.5 268.95 29.3C271.25 32.3 272.95 35.7999 273.95 39.3999C275.15 43.5999 275.75 47.9999 275.75 52.3999H237.65C238.25 56.4999 239.55 59.9 241.75 62.3C243.95 64.7 246.95 65.8999 251.05 65.8999C253.35 65.9999 255.65 65.3999 257.65 64.0999C259.25 62.8999 260.55 61.2999 261.15 59.3999H274.95C274.45 61.7999 273.65 63.9999 272.45 66.0999C271.15 68.1999 269.55 70.0999 267.55 71.5999C265.45 73.2999 262.95 74.5999 260.35 75.3999C257.45 76.3999 254.35 76.9 251.25 76.8C247.25 76.8 243.15 75.9999 239.45 74.5999ZM241.55 34.2C239.65 36.2 238.45 39.0999 237.65 42.4999H260.95C260.85 39.3999 259.65 36.5 257.65 34.2C255.65 32.1 252.85 30.8999 249.85 30.9999C246.25 31.2999 243.45 32.3 241.55 34.2Z" /> <path d="M296.55 74.6C293.35 73.3 290.45 71.3 288.15 68.7C283.25 63.2 280.65 56.1 280.75 48.7C280.75 44.9 281.35 41.2 282.55 37.6C283.65 34.3 285.45 31.2 287.75 28.7C290.05 26.2 292.85 24.2 295.95 22.8C299.35 21.3 303.05 20.6 306.85 20.6C309.95 20.5 313.05 21 315.95 22C318.55 23 320.95 24.3 323.15 26C325.25 27.6 326.95 29.7 328.05 32.1C329.35 34.6 330.25 37.2 330.55 40H316.95C316.55 37.7 315.45 35.6 313.65 34.1C311.85 32.5 309.65 31.7 307.25 31.7C302.95 31.7 299.85 33.3 297.75 36.2C295.65 39.1 294.65 43.3 294.65 48.5C294.65 53.7 295.65 57.6 297.75 60.8C299.65 64 302.95 65.3 307.25 65.3C309.75 65.4 312.25 64.6 314.25 63.1C316.15 61.3 317.45 58.8 317.75 56.2H331.05C330.85 58.9 330.15 61.6 328.95 64.1C326.55 69.1 322.25 73.1 316.95 75C313.85 76.1 310.65 76.6 307.45 76.6C303.65 76.7 299.95 76 296.55 74.6Z" /> <path d="M352.65 57.2V75.2H338.85V0.699951H352.65V41.9999L371.25 21.7999H388.05L368.65 42.2L390.45 75.2H373.55L358.75 50.8999L352.65 57.2Z" /> <path d="M405.65 74.6C402.35 73.2 399.35 71.2 396.95 68.7C394.55 66.1 392.65 63.1 391.35 59.8C388.75 52.6 388.75 44.8 391.35 37.7C392.65 34.4 394.55 31.4 396.95 28.8C399.35 26.2 402.35 24.1 405.65 22.9C412.75 20 420.65 20 427.75 22.9C431.05 24.3 434.05 26.3 436.45 28.8C438.85 31.4 440.75 34.4 442.05 37.7C444.65 44.9 444.65 52.7 442.05 59.8C440.75 63.1 438.85 66.1 436.45 68.7C434.05 71.3 431.05 73.4 427.75 74.6C420.75 77.5 412.75 77.5 405.65 74.6ZM426.65 61.1C428.95 57.9 430.15 53.8 430.15 48.5C430.15 43.2 428.95 39 426.65 35.9C424.35 32.7 420.65 30.8 416.75 31C412.85 30.8 409.05 32.7 406.85 35.9C404.55 39.1 403.35 43.4 403.35 48.5C403.35 53.6 404.55 58 406.85 61.1C411.25 66.6 419.25 67.4 424.75 63.1C425.45 62.5 426.15 61.8 426.65 61.1Z" /> <path d="M484.95 68.8H484.55C482.95 71.1 480.85 73 478.55 74.5C476.25 75.9 473.35 76.5 469.65 76.5C463.85 76.5 459.35 74.7 456.05 71.4C452.95 67.8 451.35 63.3 451.35 57.4V21.8H465.15V55C465.15 58.2 465.95 60.5 467.25 62.1C468.95 63.9 471.35 64.8 473.85 64.7C476.85 64.8 479.65 63.6 481.65 61.3C483.65 58.9 484.75 55.8 484.55 52.6V21.8H498.55V75.2H485.15V68.9L484.95 68.8Z" /> <path d="M511.95 21.8V5H525.55V21.8H534.45V31.1H525.55V59.4C525.55 61.4 525.95 62.8 526.95 63.5C528.05 64.4 529.45 64.8 530.85 64.7H533.55C534.05 64.7 534.45 64.7 534.95 64.5V75.2C534.15 75.2 533.55 75.4 532.65 75.4C531.85 75.4 530.85 75.6 529.95 75.6H526.25C524.55 75.6 522.85 75.4 521.25 75C519.65 74.7 518.15 74 516.75 73C515.35 72 514.25 70.6 513.45 69C512.55 67 512.05 64.9 512.05 62.7V31.1H504.85V21.8H511.95Z" /> <path d="M578.75 74.4C575.85 73 573.25 71 571.15 68.5C568.95 65.9 567.45 62.9 566.45 59.6C565.45 55.9 564.85 52.1 564.95 48.3C564.95 44.5 565.45 40.7 566.45 37C567.45 33.8 569.05 30.8 571.15 28.1C573.25 25.6 575.85 23.6 578.75 22.2C581.95 20.7 585.45 20 589.05 20C594.85 20 599.75 21.6 603.45 24.5C607.15 27.4 609.45 31.8 610.45 37.4H604.25C603.45 33.4 601.95 30.3 599.25 28.3C596.75 26.3 593.45 25.3 589.35 25.3C586.55 25.2 583.85 25.8 581.35 27.1C579.15 28.3 577.25 30 575.95 32.1C574.45 34.3 573.35 36.8 572.85 39.4C571.45 45.3 571.55 51.4 573.05 57.2C573.75 59.8 574.85 62.3 576.35 64.5C577.75 66.6 579.55 68.3 581.75 69.4C584.15 70.6 586.85 71.2 589.55 71.2C593.55 71.3 597.45 69.9 600.45 67.2C603.15 64.6 604.75 61.1 605.35 56.7H611.35C610.75 62.8 608.65 67.6 604.75 71.3C601.05 74.8 596.05 76.6 589.55 76.6C585.75 76.6 582.15 75.8 578.75 74.4Z" /> <path d="M630.65 74.3999C627.65 73.0999 624.95 71 622.85 68.5C620.75 65.9 619.05 62.8 618.05 59.6C616.85 56 616.25 52.2 616.25 48.3C616.25 44.5 616.85 40.7 618.05 37C619.05 33.7 620.75 30.7 622.85 28.1C624.95 25.5 627.65 23.5 630.65 22.2C637.25 19.3 644.65 19.3 651.25 22.2C654.25 23.6 656.85 25.6 659.05 28.1C661.15 30.7 662.85 33.8 663.95 37C665.05 40.6 665.65 44.5 665.45 48.3C665.45 52.1 664.95 55.9 663.95 59.6C662.95 62.9 661.25 65.9 659.05 68.5C656.95 71.1 654.35 73.0999 651.25 74.3999C648.05 75.8999 644.55 76.6 640.95 76.6C637.35 76.6 633.85 75.7999 630.65 74.3999ZM648.65 69.3999C650.95 68.1999 652.85 66.5 654.25 64.5C655.85 62.3 656.95 59.8 657.55 57.2C659.15 51.4 659.15 45.1999 657.55 39.3999C656.85 36.7999 655.75 34.4 654.25 32.1C652.85 30 650.85 28.3 648.65 27.1C646.25 25.9 643.55 25.3 640.85 25.3C638.15 25.2 635.45 25.8 633.05 27.1C630.85 28.3 628.85 30 627.45 32.1C625.85 34.3 624.65 36.7999 623.95 39.3999C622.35 45.1999 622.35 51.4 623.95 57.2C624.65 59.8 625.85 62.3 627.45 64.5C628.95 66.5 630.85 68.1999 633.05 69.3999C638.05 71.7999 643.75 71.7999 648.65 69.3999Z" /> <path d="M680.75 21.2V29.3H680.95C682.65 26.7 684.75 24.4 687.35 22.6C689.85 20.8 693.15 20 697.05 20C700.15 19.9 703.15 20.8 705.85 22.4C708.45 24.2 710.35 26.7 711.25 29.7H711.45C713.05 26.7 715.55 24.2 718.45 22.4C721.45 20.6 724.85 19.7 728.35 19.8C730.45 19.8 732.55 20.2 734.55 21C738.55 22.4 741.55 25.5 742.95 29.5C743.75 31.8 744.15 34.2 744.15 36.6V75.2H737.95V37.4C737.95 33.4 736.95 30.5 734.85 28.5C732.65 26.6 729.75 25.6 726.85 25.7C724.95 25.7 723.15 26 721.45 26.7C719.75 27.4 718.25 28.4 716.95 29.7C714.05 32.7 712.55 36.7 712.65 40.8V75.2H706.25V37.4C706.25 33.4 705.25 30.5 703.15 28.5C701.15 26.5 698.65 25.7 695.55 25.7C693.65 25.7 691.85 26.1 690.15 26.9C688.35 27.7 686.75 28.8 685.35 30.1C683.95 31.5 682.75 33.2 682.05 35C681.25 36.9 680.85 39 680.85 41.1V75.1H674.45V21.1L680.75 21.2Z" /> <path d="M58.35 48.7L83.25 4.40001C83.85 3.50001 83.85 2.30001 83.25 1.40001C82.65 0.600009 81.75 0.1 80.75 0H29.45C28.45 0.1 27.55 0.600009 26.95 1.40001L0.45 47.1C-0.15 48 -0.15 49.2 0.45 50.1L26.85 95.8C27.35 96.7 28.35 97.2 29.35 97.2H80.65C81.65 97.2 82.55 96.6 83.15 95.8C83.75 94.9 83.75 93.7 83.15 92.8L58.35 48.7ZM55.05 42.7L34.45 5.90001H75.85L55.05 42.7ZM29.25 8.90001L51.55 48.6L29.25 88.3L6.35 48.6L29.25 8.90001ZM34.45 91.2L55.05 54.4L75.65 91.2H34.45Z" /> </svg>