<svg  viewBox="0 0 224 188" fill="none" xmlns="http://www.w3.org/2000/svg">
<path d="M142.306 78.9672C107.787 58.1186 91.4985 -5.93389 38.2127 32.3423C-15.0731 70.6185 7.02264 149.258 58.0847 168.277C109.147 187.296 174.843 176.551 193.331 141.22C224.922 80.8488 165.461 92.9527 142.306 78.9672Z" fill="#F0F0F0"/>
<path d="M142.306 78.9672C107.787 58.1186 91.4985 -5.93389 38.2127 32.3423C-15.0731 70.6185 7.02264 149.258 58.0847 168.277C109.147 187.296 174.843 176.551 193.331 141.22C224.922 80.8488 165.461 92.9527 142.306 78.9672Z" fill="#F0F0F0"/>
<path d="M2.28882 153.073C2.28882 153.073 31.7235 123.571 80.886 137.568C130.048 151.564 158.994 139.569 152.89 65.3859C152.89 65.3859 221.989 75.0219 213.13 124.098C202.38 183.659 63.6011 206.385 2.28882 153.073Z" fill="#F0F0F0"/>
<path d="M145.917 74.9659C111.405 54.1173 95.1124 -9.93517 41.8266 28.341C-11.4592 66.6173 10.6365 145.256 61.6996 164.275C112.763 183.295 178.458 172.55 196.946 137.219C228.537 76.8475 169.075 88.9514 145.917 74.9659Z" fill="url(#paint0_linear)"/>
<path d="M145.917 74.9659C111.405 54.1173 95.1124 -9.93517 41.8266 28.341C-11.4592 66.6173 10.6365 145.256 61.6996 164.275C112.763 183.295 178.458 172.55 196.946 137.219C228.537 76.8475 169.075 88.9514 145.917 74.9659Z" fill="url(#paint1_linear)"/>
<path d="M5.90472 149.072C5.90472 149.072 35.3394 119.57 84.5019 133.567C133.664 147.563 162.61 135.567 156.506 61.3846C156.506 61.3846 225.605 71.0207 216.746 120.096C205.994 179.657 67.215 202.384 5.90472 149.072Z" fill="url(#paint2_linear)"/>
<path d="M92.5238 48.3354L92.0575 47L91.5911 48.3354C91.3618 48.9283 91.0137 49.468 90.5681 49.9214C90.1225 50.3749 89.5889 50.7325 89 50.9723V50.9723C89.5889 51.212 90.1226 51.5696 90.5682 52.023C91.0138 52.4765 91.3619 53.0163 91.5911 53.6091L92.0575 54.9445L92.5238 53.6091C92.7537 53.0161 93.1025 52.4763 93.5487 52.023C93.995 51.5697 94.5294 51.2125 95.1189 50.9733C94.5292 50.7338 93.9947 50.3763 93.5484 49.9226C93.1021 49.469 92.7534 48.9288 92.5238 48.3354Z" fill="white"/>
<path d="M107.519 160.335L107.052 159L106.591 160.335C106.362 160.928 106.014 161.468 105.568 161.921C105.123 162.375 104.589 162.732 104 162.972V162.972C104.589 163.212 105.123 163.57 105.568 164.023C106.014 164.477 106.362 165.016 106.591 165.609L107.057 166.945L107.524 165.609C107.753 165.016 108.101 164.476 108.547 164.023C108.992 163.57 109.526 163.212 110.115 162.972V162.972C109.525 162.733 108.99 162.376 108.544 161.922C108.097 161.469 107.749 160.929 107.519 160.335V160.335Z" fill="white"/>
<path d="M208.325 112.881L208.017 112L207.709 112.881C207.558 113.272 207.328 113.628 207.034 113.928C206.741 114.227 206.389 114.463 206 114.621V114.621C206.389 114.779 206.741 115.015 207.034 115.314C207.328 115.613 207.558 115.969 207.709 116.36L208.017 117.242L208.325 116.36C208.476 115.969 208.706 115.613 209 115.314C209.294 115.015 209.646 114.779 210.034 114.621V114.621C209.646 114.463 209.294 114.227 209 113.928C208.706 113.628 208.476 113.272 208.325 112.881Z" fill="white"/>
<path d="M21.3249 71.8813L21.0166 71L20.7094 71.8813C20.5582 72.2724 20.3285 72.6285 20.0346 72.9276C19.7406 73.2268 19.3885 73.4627 19 73.6208V73.6208C19.3885 73.779 19.7405 74.0149 20.0345 74.3141C20.3284 74.6132 20.5581 74.9693 20.7094 75.3604L21.0166 76.2417L21.3249 75.3604C21.4761 74.9693 21.7058 74.6132 21.9997 74.3141C22.2937 74.0149 22.6457 73.779 23.0342 73.6208V73.6208C22.6457 73.4626 22.2937 73.2267 21.9997 72.9276C21.7058 72.6284 21.4761 72.2724 21.3249 71.8813V71.8813Z" fill="white"/>
<path opacity="0.15" d="M111.852 183C161.64 183 202 181.137 202 178.838C202 176.54 161.64 174.677 111.852 174.677C62.0653 174.677 21.7048 176.54 21.7048 178.838C21.7048 181.137 62.0653 183 111.852 183Z" fill="#2C2A40"/>
<path d="M161.33 142.678H190.222C191.65 142.678 192.807 141.522 192.807 140.096V137.911C192.807 136.486 191.65 135.33 190.222 135.33H161.33C159.902 135.33 158.745 136.486 158.745 137.911V140.096C158.745 141.522 159.902 142.678 161.33 142.678Z" fill="#63676D"/>
<path d="M188.29 90.1207L194.538 90.8496C195.49 90.9607 196.409 91.2658 197.238 91.7458C198.067 92.2258 198.788 92.8706 199.358 93.6403C199.927 94.41 200.332 95.2881 200.548 96.2204C200.763 97.1527 200.785 98.1192 200.611 99.0602L194.472 132.335C194.167 133.987 193.277 135.473 191.964 136.524C190.651 137.574 189.004 138.117 187.323 138.054L172.091 137.492C171.064 137.455 170.058 137.192 169.145 136.722C168.231 136.252 167.432 135.588 166.805 134.775C166.177 133.963 165.737 133.023 165.514 132.021C165.291 131.02 165.292 129.982 165.517 128.98L173.007 95.5385C173.354 93.9877 174.221 92.6013 175.463 91.6078C176.705 90.6143 178.249 90.0729 179.841 90.0729H187.477C187.748 90.073 188.02 90.089 188.29 90.1207V90.1207Z" fill="#63676D"/>
<path d="M185.546 94.8566L190.559 95.4444C191.323 95.5335 192.06 95.7782 192.725 96.1633C193.39 96.5483 193.969 97.0656 194.426 97.6831C194.882 98.3005 195.207 99.005 195.38 99.7529C195.553 100.501 195.571 101.276 195.431 102.031L190.504 128.725C190.259 130.05 189.545 131.242 188.493 132.084C187.441 132.927 186.12 133.363 184.772 133.313L172.553 132.862C171.729 132.832 170.922 132.621 170.189 132.244C169.457 131.867 168.816 131.334 168.312 130.683C167.809 130.031 167.455 129.277 167.277 128.473C167.098 127.67 167.099 126.837 167.279 126.034L173.288 99.2063C173.567 97.9623 174.262 96.8503 175.258 96.0533C176.255 95.2564 177.493 94.8222 178.77 94.8222H184.896C185.113 94.8211 185.331 94.8326 185.546 94.8566V94.8566Z" fill="#404348"/>
<path d="M153.48 178.78H156.304L163.034 151.891L165.341 142.678L165.782 140.91L163.139 140.185L162.515 142.678L160.21 151.891L153.48 178.78Z" fill="#63676D"/>
<path d="M160.211 151.891H163.034L165.341 142.678H162.515L160.211 151.891Z" fill="#404348"/>
<path d="M185.906 140.91L186.348 142.678L188.655 151.891L195.383 178.78H198.207L191.478 151.891L189.174 142.678L188.55 140.185L185.906 140.91Z" fill="#63676D"/>
<path d="M186.348 142.678L188.655 151.891H191.478L189.174 142.678H186.348Z" fill="#404348"/>
<path d="M173.392 84.4477L171.817 103.247C171.817 103.247 167.334 112.018 164.481 111.803C162.173 111.629 156.277 111.029 153.367 110.729C152.343 110.624 151.689 110.554 151.689 110.554L150.638 105.957C151.26 105.994 152.015 106.02 152.85 106.036C157.279 106.12 163.873 105.957 163.873 105.957C165.65 100.939 173.392 84.4477 173.392 84.4477Z" fill="#A0BBE7"/>
<path d="M153.366 110.729C152.342 110.624 151.688 110.554 151.688 110.554L150.637 105.957C151.259 105.994 152.014 106.02 152.849 106.036C153.354 107.546 153.53 109.146 153.366 110.729V110.729Z" fill="#A0BBE7"/>
<path d="M150.637 105.957C150.637 105.957 149.385 104.302 148.808 103.306C148.23 102.309 147.178 102.781 147.966 105.143C146.544 104.894 145.093 104.841 143.656 104.986C142.184 105.301 142.394 108.713 143.971 110.234C145.548 111.756 151.689 110.556 151.689 110.556C151.689 110.556 151.94 107.779 150.637 105.957Z" fill="#ECB28A"/>
<path d="M188.552 127.276C188.552 127.276 187.31 136.817 174.953 135.641C163.926 134.591 165.772 125.507 165.772 125.507C165.772 125.507 181.128 124.838 188.552 127.276Z" fill="#2C2A40"/>
<path d="M193.696 85.9172L191.341 104.844L190.478 111.798L188.551 127.274C184.664 128.242 180.993 129.05 177.492 128.248C175.305 127.744 173.593 127.438 170.362 126.871C168.774 126.644 167.228 126.184 165.774 125.507L167.894 114.087L168.478 110.934L173.392 84.4452L178.907 83.8784L186.212 83.6626L193.696 85.9172Z" fill="#A0BBE7"/>
<path d="M191.341 104.844L190.478 111.798C189.709 112.784 188.706 113.563 187.561 114.066C184.062 115.416 169.991 114.269 167.893 114.088L168.477 110.935C185.959 112.634 190.925 104.616 190.925 104.616L191.341 104.844Z" fill="#82A6E1"/>
<path d="M180.312 88.8091L174.292 110.694L175.879 116.444L179.171 111.397L180.884 88.9334L180.312 88.8091Z" fill="#2C2A40"/>
<path d="M179.536 87.3119L180.386 90.1383L183.063 86.8182L180.913 85.3999L179.536 87.3119Z" fill="#383851"/>
<path d="M173.774 132.667C173.774 132.667 166.314 139.869 156.533 140.644C156.063 144.138 155.277 147.583 154.184 150.936C152.523 155.712 145.577 172.499 145.577 172.499L139.362 172.31L150.279 132.999C150.496 132.219 150.913 131.51 151.488 130.939C152.063 130.369 152.777 129.959 153.559 129.748L165.978 126.401C165.978 126.401 174.173 129.085 173.774 132.667Z" fill="#2C2A40"/>
<path d="M143.607 178.667L130.319 178.781C132.135 175.322 138.892 173.987 138.892 173.987L139.172 172.857L139.527 171.699C141.358 171.146 145.572 172.5 145.572 172.5L143.607 178.667Z" fill="#82423C"/>
<path d="M143.165 174.867C141.759 173.719 138.896 173.987 138.896 173.987L139.177 172.856C142.153 173.022 143.165 174.867 143.165 174.867Z" fill="#5C1A31"/>
<path d="M185.604 132.737C185.604 132.737 176.425 143.354 167.465 142.65C167.465 142.65 167.606 150.021 167.185 155.059C166.765 160.097 165.656 172.5 165.656 172.5L160.404 172.719L159.013 139.36C158.983 138.651 159.15 137.948 159.495 137.327C159.841 136.707 160.351 136.194 160.969 135.845L172.426 129.379C172.426 129.379 185.099 129.169 185.604 132.737Z" fill="#383851"/>
<path d="M164.865 178.753L151.591 178.78C153.408 175.322 160.11 173.975 160.11 173.975L160.351 172.857L160.386 172.301C162.217 171.748 165.656 172.5 165.656 172.5L164.865 178.753Z" fill="#82423C"/>
<path d="M163.873 174.867C162.468 173.719 160.111 173.974 160.111 173.974L160.352 172.856C163.327 173.022 163.873 174.867 163.873 174.867Z" fill="#5C1A31"/>
<path d="M197.637 94.8188C195.954 102.573 187.393 112.505 187.393 112.505C187.393 112.505 178.154 114.574 169.296 111.824C168.791 111.669 168.291 111.499 167.793 111.311C167.578 109.93 167.578 108.524 167.793 107.143C167.793 107.143 168.422 107.34 169.296 107.524C170.403 107.786 171.546 107.871 172.681 107.775C176.381 107.272 184.184 105.959 184.184 105.959C184.184 105.959 188.007 100.47 193.695 85.9197C193.695 85.9172 199.319 87.0617 197.637 94.8188Z" fill="#A0BBE7"/>
<path d="M169.296 107.523V111.824C168.791 111.669 168.291 111.499 167.793 111.311C167.578 109.93 167.578 108.524 167.793 107.143C167.793 107.143 168.421 107.34 169.296 107.523Z" fill="#BFD7F7"/>
<path d="M167.792 107.143C167.792 107.143 165.595 104.656 164.893 104.617C164.026 104.569 164.533 106.277 164.533 106.277C164.533 106.277 162.58 105.3 161.239 106.271C160.018 107.155 160.63 113.212 167.792 111.309V107.143Z" fill="#ECB28A"/>
<path d="M185.737 82.7801C184.959 83.7347 183.966 84.4929 182.84 84.9932C181.714 85.4936 180.485 85.7221 179.254 85.6602L178.659 83.4333L177.902 80.5993C178.33 79.7975 178.848 79.047 179.446 78.3624C180.557 77.0953 182.213 75.8097 184.229 76.0734L185.737 82.7801Z" fill="#ECB28A"/>
<path d="M183.477 77.097C183.477 77.097 182.526 81.8916 178.658 83.4333L177.901 80.5993C178.329 79.7975 178.847 79.047 179.445 78.3624L183.477 77.097Z" fill="#E8967C"/>
<path d="M171.359 63.98L170.349 78.406C170.317 78.859 170.378 79.3138 170.53 79.7418C170.682 80.1699 170.921 80.5619 171.232 80.8932C171.543 81.2245 171.919 81.4879 172.337 81.6668C172.755 81.8457 173.206 81.9363 173.661 81.9328C177.35 81.8942 182.95 80.8907 185.556 75.6031C189.624 67.343 179.587 58.6286 171.359 63.98Z" fill="#ECB28A"/>
<path d="M170.952 69.7865L169.203 73.8171C169.154 73.9288 169.128 74.0491 169.126 74.171C169.124 74.2929 169.146 74.4139 169.192 74.5272C169.237 74.6404 169.304 74.7437 169.389 74.8309C169.474 74.9181 169.576 74.9877 169.688 75.0355L170.561 75.4092C170.561 75.4092 171.948 74.3469 170.952 69.7865Z" fill="#ECB28A"/>
<path d="M171.86 65.1631C171.86 65.1631 168.159 63.8599 168.635 60.2929C169.522 53.5828 181.861 58.5161 186.549 60.9596C191.863 63.7306 189.184 72.6449 187.726 75.2152C187.189 76.1429 186.439 76.9311 185.54 77.516C184.594 78.1449 183.148 77.432 182.757 76.3664C182.366 75.3008 181.867 74.1093 183.674 71.5633C185.001 69.6925 183.063 66.9903 181.077 68.7688C179.091 70.5473 178.314 70.203 178.936 67.8645C179.557 65.5259 175.374 64.2445 171.86 65.1631Z" fill="#2C2A40"/>
<path d="M178.821 68.9393C178.821 68.9393 177.118 76.8761 174.757 75.7047C174.075 75.3631 173.321 75.1887 172.559 75.1962C171.796 75.2036 171.046 75.3927 170.371 75.7476C168.661 83.5669 173.039 83.3888 174.879 82.838C177.912 81.9269 178.047 77.4824 178.276 75.253C178.504 73.0236 180.535 69.2214 180.535 69.2214L178.821 68.9393ZM171.748 79.5145C171.174 78.8766 170.872 78.0397 170.907 77.1826C170.899 77.0805 170.926 76.9787 170.985 76.895C171.044 76.8112 171.131 76.7507 171.23 76.7241C171.969 76.5247 172.752 76.5567 173.473 76.8157C173.925 77.1171 172.705 80.2954 171.747 79.5145H171.748Z" fill="#2C2A40"/>
<path d="M180.913 85.3999L184.247 87.5983C184.247 87.5983 187.668 84.0069 187.023 82.3359C186.377 80.6649 185.395 81.2442 185.395 81.2442C185.395 81.2442 183.623 84.2638 180.913 85.3999Z" fill="#BFD7F7"/>
<path d="M178.559 83.0269C178.559 83.0269 177.109 84.4813 177.109 85.6342C177.109 86.7871 179.051 87.9854 179.051 87.9854L180.914 85.3982C180.349 85.4901 179.776 85.5286 179.204 85.5133L178.559 83.0269Z" fill="#BFD7F7"/>
<path d="M59.3992 135.33H30.5073C29.0794 135.33 27.9219 136.486 27.9219 137.911V140.096C27.9219 141.522 29.0794 142.678 30.5073 142.678H59.3992C60.8271 142.678 61.9846 141.522 61.9846 140.096V137.911C61.9846 136.486 60.8271 135.33 59.3992 135.33Z" fill="#63676D"/>
<path d="M32.4384 90.1207L26.1902 90.8496C25.2383 90.9608 24.3194 91.266 23.4905 91.7461C22.6615 92.2262 21.94 92.8711 21.3708 93.6409C20.8016 94.4106 20.3966 95.2889 20.1811 96.2212C19.9656 97.1535 19.944 98.12 20.1178 99.061L26.2574 132.336C26.5624 133.987 27.4526 135.474 28.7653 136.524C30.078 137.575 31.7254 138.118 33.4064 138.055L48.6379 137.493C49.6647 137.455 50.6705 137.192 51.5841 136.723C52.4976 136.253 53.2964 135.588 53.9239 134.776C54.5513 133.964 54.992 133.023 55.2147 132.022C55.4374 131.02 55.4366 129.982 55.2124 128.981L47.7212 95.5385C47.3738 93.9877 46.5077 92.6013 45.2655 91.6078C44.0233 90.6143 42.4792 90.0729 40.8876 90.0729H33.2517C32.9799 90.073 32.7083 90.089 32.4384 90.1207Z" fill="#63676D"/>
<path d="M35.1819 94.8566L30.1692 95.4444C29.4057 95.5337 28.6687 95.7786 28.0039 96.1637C27.339 96.5489 26.7604 97.0662 26.3038 97.6836C25.8472 98.301 25.5225 99.0054 25.3496 99.7532C25.1767 100.501 25.1593 101.276 25.2986 102.031L30.2264 128.725C30.4708 130.05 31.1845 131.242 32.2369 132.084C33.2893 132.927 34.6102 133.363 35.9582 133.313L48.177 132.862C49.0007 132.832 49.8077 132.621 50.5405 132.244C51.2734 131.867 51.9142 131.334 52.4176 130.683C52.921 130.031 53.2745 129.277 53.4532 128.473C53.6318 127.67 53.6311 126.837 53.4513 126.034L47.4419 99.2029C47.1632 97.9589 46.4684 96.8469 45.4719 96.05C44.4754 95.253 43.2367 94.8188 41.9599 94.8188H35.8345C35.6164 94.8188 35.3985 94.8314 35.1819 94.8566V94.8566Z" fill="#404348"/>
<path d="M67.2496 178.78H64.4253L57.6952 151.891L55.3882 142.678L54.9467 140.91L57.5901 140.185L58.2142 142.678L60.5186 151.891L67.2496 178.78Z" fill="#63676D"/>
<path d="M60.5187 151.891H57.6953L55.3882 142.678H58.2142L60.5187 151.891Z" fill="#404348"/>
<path d="M34.8219 140.91L34.3804 142.678L32.0742 151.891L25.3457 178.78H22.5215L29.2499 151.891L31.5544 142.678L32.1793 140.185L34.8219 140.91Z" fill="#63676D"/>
<path d="M34.3804 142.678L32.0742 151.891H29.2499L31.5544 142.678H34.3804Z" fill="#404348"/>
<path d="M47.3242 84.4477L48.7691 94.1975C48.7691 94.1975 59.866 104.829 62.7197 104.616C67.4826 104.263 74.1689 101.187 76.6719 99.6757C77.5533 99.1441 78.1143 98.8032 78.1143 98.8032L77.0992 94.1975C76.5525 94.4972 75.8805 94.8415 75.1328 95.2126C71.1639 97.1792 62.7188 98.2272 62.7188 98.2272C58.9669 94.4477 47.3242 84.4477 47.3242 84.4477Z" fill="#2C2A40"/>
<path d="M76.6719 99.6757C77.5534 99.1441 78.1143 98.8032 78.1143 98.8032L77.0992 94.1975C76.5525 94.4972 75.8805 94.8415 75.1328 95.2127C75.3215 96.7928 75.8463 98.3145 76.6719 99.6757V99.6757Z" fill="#EDEDED"/>
<path d="M77.0992 94.1966C77.0992 94.1966 77.5197 92.1679 77.6198 91.0192C77.7199 89.8705 78.8688 89.8503 79.1656 92.3216C80.3455 91.4903 81.634 90.8244 82.995 90.3424C84.4609 89.9998 85.7292 93.1739 84.9546 95.2227C84.18 97.2716 78.1169 98.8032 78.1169 98.8032C78.1169 98.8032 76.6997 96.4008 77.0992 94.1966Z" fill="#ECB28A"/>
<path d="M32.1768 127.276C32.1768 127.276 33.4182 136.817 45.7758 135.641C56.802 134.591 54.9559 125.507 54.9559 125.507C54.9559 125.507 39.5965 124.838 32.1768 127.276Z" fill="#2C2A40"/>
<path d="M32.1768 127.276C36.065 128.242 39.7362 129.05 43.2375 128.249C45.4242 127.745 47.1366 127.438 50.3671 126.871C51.9552 126.644 53.5011 126.184 54.9551 125.507L47.3343 84.4477L41.8195 83.8809L34.5149 83.6651L27.0295 85.9189L32.1768 127.276Z" fill="#2C2A40"/>
<path d="M43.2384 128.249C45.3217 128.014 48.1165 127.829 50.368 126.871C49.1552 120.554 43.9011 93.0882 41.8229 83.8784L34.5183 83.6626C34.5183 83.6626 41.9406 114.778 43.2384 128.249Z" fill="#EDEDED"/>
<path d="M40.4166 88.8091L46.436 110.694L44.8498 116.444L41.5579 111.397L39.8455 88.9334L40.4166 88.8091Z" fill="#107B85"/>
<path d="M41.1929 87.3119L40.3435 90.1383L37.6664 86.8182L39.8161 85.3999L41.1929 87.3119Z" fill="#079798"/>
<path d="M46.955 132.667C46.955 132.667 54.4151 139.869 64.1966 140.644C64.6666 144.138 65.4526 147.583 66.5448 150.936C68.2059 155.712 75.1521 172.499 75.1521 172.499L81.3667 172.31L70.4456 132.999C70.2289 132.219 69.8125 131.51 69.2373 130.939C68.6621 130.369 67.948 129.959 67.1655 129.748L54.7473 126.401C54.7473 126.401 46.5563 129.085 46.955 132.667Z" fill="#2C2A40"/>
<path d="M77.1219 178.667L90.4106 178.781C88.5939 175.322 81.8369 173.987 81.8369 173.987L81.5568 172.857L81.2019 171.699C79.3709 171.146 75.1572 172.5 75.1572 172.5L77.1219 178.667Z" fill="#82423C"/>
<path d="M77.5643 174.867C78.9697 173.719 81.8326 173.987 81.8326 173.987L81.5525 172.856C78.5752 173.022 77.5643 174.867 77.5643 174.867Z" fill="#5C1A31"/>
<path d="M35.1247 132.737C35.1247 132.737 44.3065 143.354 53.2629 142.65C53.2629 142.65 53.1224 150.021 53.543 155.059C53.9635 160.097 55.072 172.5 55.072 172.5L60.3244 172.719L61.7163 139.36C61.746 138.651 61.579 137.948 61.2338 137.327C60.8886 136.707 60.3786 136.194 59.76 135.845L48.3032 129.379C48.3032 129.379 35.6293 129.169 35.1247 132.737Z" fill="#383851"/>
<path d="M55.8634 178.753L69.1378 178.78C67.3211 175.321 60.6187 173.974 60.6187 173.974L60.3782 172.856L60.3429 172.301C58.5119 171.747 55.0728 172.499 55.0728 172.499L55.8634 178.753Z" fill="#82423C"/>
<path d="M56.8558 174.867C58.2612 173.719 60.6179 173.974 60.6179 173.974L60.3773 172.856C57.4008 173.022 56.8558 174.867 56.8558 174.867Z" fill="#5C1A31"/>
<path d="M25.27 101.819C25.7541 104.079 26.7267 106.207 28.1199 108.052C29.5131 109.898 31.2932 111.417 33.3357 112.505C33.3357 112.505 42.5747 114.574 51.4336 111.824C51.9382 111.669 52.4428 111.499 52.9365 111.311C53.151 109.93 53.151 108.524 52.9365 107.143C52.9365 107.143 52.3083 107.34 51.4336 107.524C50.3256 107.786 49.183 107.871 48.0483 107.775C44.3477 107.272 36.5452 105.959 36.5452 105.959C36.5452 105.959 32.7218 100.468 27.0337 85.9172C27.0337 85.9172 23.5879 94.0623 25.27 101.819Z" fill="#2C2A40"/>
<path d="M51.4336 107.523V111.824C51.9382 111.669 52.4429 111.499 52.9366 111.311C53.151 109.93 53.151 108.524 52.9366 107.143C52.9366 107.143 52.3083 107.34 51.4336 107.523Z" fill="#EDEDED"/>
<path d="M52.9374 107.143C52.9374 107.143 55.1342 104.656 55.8365 104.617C56.7036 104.569 56.1965 106.277 56.1965 106.277C56.1965 106.277 58.1494 105.3 59.49 106.271C60.7104 107.155 60.099 113.212 52.9374 111.309V107.143V107.143Z" fill="#ECB28A"/>
<path d="M35.0162 82.6944C35.8019 83.6429 36.8002 84.3933 37.9305 84.885C39.0607 85.3766 40.291 85.5956 41.5217 85.5242L42.0995 83.2931L42.8355 80.4507C42.4012 79.6524 41.8772 78.9061 41.2736 78.2264C40.1525 76.9668 38.4864 75.6955 36.4729 75.9751L35.0162 82.6944Z" fill="#ECB28A"/>
<path d="M37.2324 76.9945C37.2324 76.9945 38.2206 81.7808 42.0995 83.2923L42.8355 80.4507C42.4012 79.6524 41.8772 78.9061 41.2736 78.2264L37.2324 76.9945Z" fill="#E8967C"/>
<path d="M49.2485 63.7827L50.3688 78.2003C50.4046 78.6524 50.3464 79.1069 50.1979 79.5355C50.0494 79.964 49.8137 80.3572 49.5056 80.6904C49.1976 81.0237 48.8239 81.2897 48.408 81.4719C47.992 81.654 47.5429 81.7483 47.0887 81.7489C43.399 81.7388 37.7908 80.779 35.1457 75.5116C31.0094 67.2884 40.9784 58.4959 49.2485 63.7827Z" fill="#ECB28A"/>
<path d="M49.6993 69.585L51.4824 73.6055C51.5315 73.7167 51.5582 73.8365 51.5609 73.9581C51.5635 74.0796 51.5421 74.2005 51.4979 74.3138C51.4537 74.4271 51.3875 74.5305 51.3031 74.6182C51.2188 74.7059 51.1179 74.7761 51.0063 74.8247L50.1358 75.2051C50.1358 75.2051 48.7397 74.153 49.6993 69.585Z" fill="#ECB28A"/>
<path d="M34.0675 60.1216C28.7898 62.9614 31.4938 72.5844 32.9741 75.1438C33.5184 76.0671 34.2727 76.8495 35.176 77.4278C36.1272 78.0492 37.5671 77.3254 37.9515 76.2573C38.3358 75.1892 38.8236 73.9901 36.9969 71.4617C35.6512 69.6018 37.5721 66.8837 39.5722 68.6471C41.5722 70.4104 42.3476 70.0594 41.7059 67.7234C41.0642 65.3873 45.2316 64.0766 48.7556 64.97C48.7556 64.97 52.41 64.687 51.8415 60.3718C51.2729 56.0566 46.1358 55.1178 46.1358 55.1178C46.1358 55.1178 47.9154 57.0491 45.7749 57.9728C43.6345 58.8965 37.7261 58.1525 34.0675 60.1216Z" fill="#2C2A40"/>
<path d="M39.8161 85.3999L36.4846 87.5991C36.4846 87.5991 33.0641 84.0077 33.7092 82.3367C34.3542 80.6657 35.3366 81.2451 35.3366 81.2451C35.3366 81.2451 37.1062 84.2638 39.8161 85.3999Z" fill="white"/>
<path d="M42.1702 83.0269C42.1702 83.0269 43.6177 84.483 43.621 85.6342C43.6244 86.7854 41.679 87.9854 41.679 87.9854L39.8161 85.3982C40.3812 85.4901 40.9537 85.5286 41.526 85.5133L42.1702 83.0269Z" fill="white"/>
<path d="M64.8635 117.687H60.2856V178.519H64.8635V117.687Z" fill="#82423C"/>
<path d="M64.8635 117.687H60.2856V128.251H64.8635V117.687Z" fill="#5C1A31"/>
<path d="M160.528 117.687H155.95V178.519H160.528V117.687Z" fill="#82423C"/>
<path d="M160.528 117.687H155.95V128.251H160.528V117.687Z" fill="#5C1A31"/>
<path d="M168.869 111.808H50.5816V117.687H168.869V111.808Z" fill="#82423C"/>
<path d="M155.95 133.812H64.8644V136.55H155.95V133.812Z" fill="#5C1A31"/>
<path d="M155.95 148.081H64.8644V150.819H155.95V148.081Z" fill="#5C1A31"/>
<path opacity="0.2" d="M112.73 56.9089C110.38 56.9089 108.081 56.2129 106.127 54.9088C104.172 53.6048 102.648 51.7514 101.749 49.5829C100.849 47.4144 100.614 45.0282 101.072 42.7262C101.531 40.4241 102.663 38.3095 104.325 36.6498C105.988 34.9901 108.106 33.8598 110.412 33.4019C112.717 32.944 115.107 33.179 117.279 34.0773C119.451 34.9755 121.308 36.4966 122.614 38.4482C123.92 40.3998 124.617 42.6942 124.617 45.0414C124.614 48.1878 123.36 51.2042 121.132 53.429C118.903 55.6539 115.882 56.9053 112.73 56.9089V56.9089Z" fill="black"/>
<path d="M112.73 55.7358C110.38 55.7358 108.081 55.0398 106.127 53.7358C104.172 52.4318 102.648 50.5783 101.749 48.4098C100.849 46.2413 100.614 43.8552 101.072 41.5531C101.531 39.251 102.663 37.1364 104.325 35.4767C105.988 33.817 108.106 32.6868 110.412 32.2289C112.717 31.771 115.107 32.006 117.279 32.9042C119.451 33.8024 121.308 35.3235 122.614 37.2751C123.92 39.2267 124.617 41.5212 124.617 43.8683C124.614 47.0147 123.36 50.0312 121.132 52.256C118.903 54.4808 115.882 55.7323 112.73 55.7358V55.7358Z" fill="#2C2A40"/>
<path d="M112.73 53.9892C118.33 53.9892 122.869 49.4576 122.869 43.8675C122.869 38.2774 118.33 33.7457 112.73 33.7457C107.131 33.7457 102.592 38.2774 102.592 43.8675C102.592 49.4576 107.131 53.9892 112.73 53.9892Z" fill="white"/>
<path d="M112.73 36.9131C112.641 36.9131 112.556 36.8777 112.493 36.8147C112.429 36.7517 112.394 36.6663 112.394 36.5772V34.7114C112.406 34.6319 112.446 34.5594 112.507 34.507C112.568 34.4546 112.646 34.4258 112.727 34.4258C112.807 34.4258 112.885 34.4546 112.946 34.507C113.007 34.5594 113.047 34.6319 113.059 34.7114V36.5806C113.058 36.6678 113.024 36.7512 112.962 36.8133C112.901 36.8753 112.818 36.9111 112.73 36.9131V36.9131Z" fill="#2C2A40"/>
<path d="M112.73 53.1395C112.641 53.1395 112.556 53.1041 112.493 53.0411C112.429 52.9781 112.394 52.8927 112.394 52.8036V50.9378C112.406 50.8583 112.446 50.7858 112.507 50.7334C112.568 50.681 112.646 50.6521 112.727 50.6521C112.807 50.6521 112.885 50.681 112.946 50.7334C113.007 50.7858 113.047 50.8583 113.059 50.9378V52.8069C113.058 52.8941 113.024 52.9776 112.962 53.0397C112.901 53.1017 112.818 53.1375 112.73 53.1395V53.1395Z" fill="#2C2A40"/>
<path d="M106.16 43.7558C106.16 43.7999 106.151 43.8436 106.135 43.8843C106.118 43.9251 106.093 43.9621 106.062 43.9933C106.03 44.0245 105.993 44.0492 105.953 44.0661C105.912 44.083 105.868 44.0917 105.824 44.0917H103.956C103.876 44.0797 103.804 44.0395 103.751 43.9786C103.699 43.9177 103.67 43.84 103.67 43.7596C103.67 43.6792 103.699 43.6015 103.751 43.5406C103.804 43.4796 103.876 43.4395 103.956 43.4275H105.828C105.915 43.4286 105.999 43.4634 106.061 43.5246C106.122 43.5859 106.158 43.6688 106.16 43.7558V43.7558Z" fill="#2C2A40"/>
<path d="M122.414 43.7558C122.414 43.8449 122.378 43.9303 122.315 43.9933C122.252 44.0563 122.166 44.0917 122.077 44.0917H120.205C120.125 44.0797 120.053 44.0395 120 43.9786C119.948 43.9177 119.919 43.84 119.919 43.7596C119.919 43.6792 119.948 43.6015 120 43.5406C120.053 43.4796 120.125 43.4395 120.205 43.4275H122.077C122.165 43.4275 122.249 43.4618 122.312 43.5232C122.375 43.5845 122.412 43.668 122.414 43.7558V43.7558Z" fill="#2C2A40"/>
<path d="M108.01 39.1215C107.948 39.183 107.863 39.2175 107.775 39.2175C107.687 39.2175 107.602 39.183 107.539 39.1215L106.217 37.7998C106.168 37.7351 106.144 37.6551 106.15 37.5745C106.156 37.4938 106.191 37.418 106.248 37.3608C106.305 37.3036 106.381 37.269 106.462 37.2633C106.543 37.2575 106.623 37.2811 106.688 37.3296L108.011 38.6513C108.073 38.7142 108.107 38.7986 108.107 38.8866C108.107 38.9745 108.072 39.0588 108.01 39.1215V39.1215Z" fill="#2C2A40"/>
<path d="M119.503 50.5952C119.441 50.6567 119.356 50.6912 119.268 50.6912C119.18 50.6912 119.095 50.6567 119.032 50.5952L117.709 49.2735C117.66 49.2088 117.636 49.1288 117.642 49.0481C117.648 48.9675 117.683 48.8916 117.74 48.8344C117.797 48.7773 117.873 48.7426 117.954 48.7369C118.035 48.7312 118.115 48.7547 118.18 48.8032L119.503 50.1249C119.565 50.1877 119.6 50.2721 119.6 50.36C119.6 50.448 119.565 50.5324 119.503 50.5952V50.5952Z" fill="#2C2A40"/>
<path d="M108.214 48.6C108.276 48.6628 108.31 48.7472 108.31 48.8352C108.31 48.9231 108.276 49.0075 108.214 49.0703L106.89 50.3894C106.825 50.438 106.745 50.4615 106.665 50.4558C106.584 50.45 106.508 50.4154 106.45 50.3582C106.393 50.3011 106.359 50.2252 106.353 50.1446C106.347 50.0639 106.371 49.9839 106.419 49.9192L107.743 48.5975C107.806 48.5363 107.891 48.5023 107.979 48.5028C108.067 48.5032 108.151 48.5382 108.214 48.6V48.6Z" fill="#2C2A40"/>
<path d="M119.707 37.1264C119.769 37.1892 119.803 37.2736 119.803 37.3615C119.803 37.4494 119.769 37.5338 119.707 37.5966L118.383 38.9183C118.354 38.9568 118.317 38.9886 118.275 39.0117C118.233 39.0347 118.186 39.0484 118.138 39.0518C118.09 39.0552 118.042 39.0483 117.996 39.0314C117.951 39.0146 117.91 38.9883 117.876 38.9543C117.842 38.9202 117.816 38.8793 117.799 38.8342C117.782 38.7891 117.775 38.741 117.778 38.693C117.782 38.645 117.796 38.5982 117.819 38.556C117.842 38.5137 117.874 38.4769 117.912 38.4481L119.236 37.1264C119.299 37.0648 119.383 37.0304 119.472 37.0304C119.56 37.0304 119.644 37.0648 119.707 37.1264V37.1264Z" fill="#2C2A40"/>
<path opacity="0.2" d="M122.868 43.8675C122.868 44.1619 122.855 44.453 122.83 44.7408C122.612 42.2163 121.454 39.8653 119.584 38.1522C117.714 36.4392 115.268 35.4888 112.73 35.4888C110.192 35.4888 107.747 36.4392 105.877 38.1522C104.007 39.8653 102.848 42.2163 102.63 44.7408C102.604 44.4536 102.592 44.1625 102.592 43.8675C102.592 41.1831 103.661 38.6087 105.562 36.7106C107.463 34.8125 110.041 33.7462 112.73 33.7462C115.419 33.7462 117.997 34.8125 119.898 36.7106C121.8 38.6087 122.868 41.1831 122.868 43.8675V43.8675Z" fill="black"/>
<path d="M112.999 44.0917L115.872 51.0066L112.515 44.4242L112.999 44.0917Z" fill="#FF6160"/>
<path d="M112.801 44.834C113.396 44.834 113.878 44.3528 113.878 43.7592C113.878 43.1656 113.396 42.6843 112.801 42.6843C112.207 42.6843 111.725 43.1656 111.725 43.7592C111.725 44.3528 112.207 44.834 112.801 44.834Z" fill="#2C2A40"/>
<path d="M111.878 43.7592L110.222 39.6572L112.801 43.2528L111.878 43.7592Z" fill="#2C2A40"/>
<path d="M112.882 43.1705L119.345 45.8819L112.515 44.3033L112.882 43.1705Z" fill="#2C2A40"/>
<path d="M112.011 97.453V102.231H90.329C90.0013 102.231 89.6871 102.101 89.4554 101.87C89.2237 101.638 89.0935 101.325 89.0935 100.997V98.6865C89.0935 98.3593 89.2237 98.0456 89.4554 97.8143C89.6871 97.5829 90.0013 97.453 90.329 97.453H112.011V97.453Z" fill="#383851"/>
<path d="M112.011 98.0576V101.626H92.3383C92.1883 101.626 92.0398 101.597 91.9013 101.539C91.7628 101.482 91.6369 101.398 91.5309 101.292C91.425 101.186 91.3409 101.061 91.2836 100.922C91.2263 100.784 91.1969 100.636 91.197 100.486V99.1996C91.1967 99.0497 91.2261 98.9013 91.2833 98.7629C91.3406 98.6244 91.4246 98.4985 91.5306 98.3924C91.6366 98.2864 91.7625 98.2022 91.9011 98.1448C92.0396 98.0873 92.1882 98.0577 92.3383 98.0576H112.011Z" fill="#EDEDED"/>
<path d="M112.013 98.7814H93.1945V99.0968H112.013V98.7814Z" fill="#9CA4AE"/>
<path d="M112.013 99.6841H93.1945V99.9995H112.013V99.6841Z" fill="#9CA4AE"/>
<path d="M112.013 100.587H93.1945V100.902H112.013V100.587Z" fill="#9CA4AE"/>
<path d="M112.011 102.231V107.009H90.329C90.0013 107.009 89.6871 106.879 89.4554 106.647C89.2237 106.416 89.0935 106.102 89.0935 105.775V103.464C89.0935 103.137 89.2237 102.823 89.4554 102.592C89.6871 102.361 90.0013 102.231 90.329 102.231H112.011Z" fill="#FF6160"/>
<path d="M112.011 102.835V106.404H92.3383C92.1883 106.404 92.0398 106.375 91.9013 106.317C91.7628 106.26 91.6369 106.176 91.5309 106.07C91.425 105.964 91.3409 105.839 91.2836 105.7C91.2263 105.562 91.1969 105.414 91.197 105.264V103.977C91.1967 103.828 91.2261 103.679 91.2833 103.541C91.3406 103.402 91.4246 103.276 91.5306 103.17C91.6366 103.064 91.7625 102.98 91.9011 102.923C92.0396 102.865 92.1882 102.836 92.3383 102.835H112.011Z" fill="#EDEDED"/>
<path d="M112.013 103.559H93.1945V103.875H112.013V103.559Z" fill="#9CA4AE"/>
<path d="M112.013 104.462H93.1945V104.777H112.013V104.462Z" fill="#9CA4AE"/>
<path d="M112.013 105.365H93.1945V105.68H112.013V105.365Z" fill="#9CA4AE"/>
<path d="M112.011 107.009V111.787H90.329C90.0013 111.787 89.6871 111.657 89.4554 111.425C89.2237 111.194 89.0935 110.88 89.0935 110.553V108.245C89.0935 107.918 89.2237 107.604 89.4554 107.373C89.6871 107.141 90.0013 107.011 90.329 107.011H112.011V107.009Z" fill="#00B3D8"/>
<path d="M112.011 107.613V111.184H92.3383C92.1883 111.184 92.0398 111.154 91.9013 111.097C91.7628 111.04 91.6369 110.956 91.5309 110.85C91.425 110.744 91.3409 110.618 91.2836 110.48C91.2263 110.341 91.1969 110.193 91.197 110.043V108.755C91.1967 108.606 91.2261 108.457 91.2833 108.319C91.3406 108.18 91.4246 108.054 91.5306 107.948C91.6366 107.842 91.7625 107.758 91.9011 107.701C92.0396 107.643 92.1882 107.613 92.3383 107.613H112.011Z" fill="#EDEDED"/>
<path d="M112.013 108.337H93.1945V108.653H112.013V108.337Z" fill="#9CA4AE"/>
<path d="M112.013 109.24H93.1945V109.555H112.013V109.24Z" fill="#9CA4AE"/>
<path d="M112.013 110.143H93.1945V110.458H112.013V110.143Z" fill="#9CA4AE"/>
<path d="M130.641 102.955V99.9738H121.589V111.939H130.641V110.107C131.591 110.107 132.502 109.73 133.174 109.06C133.845 108.389 134.223 107.479 134.223 106.531C134.223 105.583 133.845 104.673 133.174 104.002C132.502 103.331 131.591 102.955 130.641 102.955ZM130.641 108.635V104.427C131.2 104.427 131.736 104.649 132.132 105.043C132.527 105.438 132.75 105.974 132.75 106.532C132.75 107.091 132.527 107.626 132.132 108.021C131.736 108.416 131.2 108.638 130.641 108.638V108.635Z" fill="#383851"/>
<defs>
<linearGradient id="paint0_linear" x1="11.0939" y1="94.9763" x2="205.993" y2="94.9763" gradientUnits="userSpaceOnUse">
<stop stop-color="#00BFC2"/>
<stop offset="0.246" stop-color="#00BBC5"/>
<stop offset="0.49" stop-color="#00AFCF"/>
<stop offset="0.732" stop-color="#009BDF"/>
<stop offset="0.972" stop-color="#0080F5"/>
<stop offset="1" stop-color="#007CF8"/>
</linearGradient>
<linearGradient id="paint1_linear" x1="11.0939" y1="94.9763" x2="205.993" y2="94.9763" gradientUnits="userSpaceOnUse">
<stop stop-color="#00BFC2"/>
<stop offset="0.246" stop-color="#00BBC5"/>
<stop offset="0.49" stop-color="#00AFCF"/>
<stop offset="0.732" stop-color="#009BDF"/>
<stop offset="0.972" stop-color="#0080F5"/>
<stop offset="1" stop-color="#007CF8"/>
</linearGradient>
<linearGradient id="paint2_linear" x1="1254.29" y1="14207.1" x2="46003.9" y2="14207.1" gradientUnits="userSpaceOnUse">
<stop stop-color="#00BFC2"/>
<stop offset="0.246" stop-color="#00BBC5"/>
<stop offset="0.49" stop-color="#00AFCF"/>
<stop offset="0.732" stop-color="#009BDF"/>
<stop offset="0.972" stop-color="#0080F5"/>
<stop offset="1" stop-color="#007CF8"/>
</linearGradient>
</defs>
</svg>
