<?xml version="1.0" encoding="utf-8"?>
<!-- Generator: Adobe Illustrator 16.0.0, SVG Export Plug-In . SVG Version: 6.00 Build 0)  -->
<!DOCTYPE svg PUBLIC "-//W3C//DTD SVG 1.1//EN" "http://www.w3.org/Graphics/SVG/1.1/DTD/svg11.dtd">
<svg xmlns="http://www.w3.org/2000/svg" xmlns:xlink="http://www.w3.org/1999/xlink" version="1.1" id="effective_x5F_data" x="0px" y="0px" width="512" height="512" viewBox="0 0 512 512" enable-background="new 0 0 512 512" xml:space="preserve">
<g>
	<polygon fill="#7ED4F8" points="330.441,226.358 330.441,233.696 263.855,319.278 196.35,233.696 196.35,226.358  "/>
	<polygon fill="#DAF3FD" points="330.441,210.259 330.441,226.358 196.35,226.358 196.35,210.259 215.99,190.755 307.99,190.755     "/>
	<rect x="47.936" y="313.651" fill="#61D0A9" width="43.883" height="43.881"/>
	<rect x="434.211" y="154.921" fill="#FFCFA7" width="43.879" height="43.881"/>
	<path fill="#FFCFA7" d="M99.174,10.302v113.23c0,1.516-1.24,2.736-2.736,2.736H10.35c-1.518,0-2.738-1.221-2.738-2.736V10.302   c0-1.518,1.221-2.736,2.738-2.736h86.088C97.934,7.565,99.174,8.784,99.174,10.302z"/>
	<g>
		<path fill="#FFCFA7" d="M39.672,158.79h85.48c1.68,0,3.041-1.361,3.041-3.041V43.114c0-1.678-1.361-3.039-3.041-3.039h-85.48    c-1.678,0-3.039,1.361-3.039,3.039v112.635C36.633,157.429,37.994,158.79,39.672,158.79z"/>
		<path fill="#FF876B" d="M36.639,27.415c-6.988,0-12.65,5.662-12.65,12.648v86.205h12.65v-83.15c0-1.688,1.365-3.055,3.053-3.055    h59.482V27.415H36.639z"/>
	</g>
	<g>
		<path fill="#8BBCE2" d="M155.387,222.618l-12.451-2.238c0.211-1.172,0.441-2.34,0.684-3.5c0.215-1.004,0.436-1.996,0.67-2.984    c2.432-10.254,6.188-20.17,11.166-29.471l11.154,5.967c-4.465,8.34-7.83,17.23-10.012,26.426c-0.211,0.887-0.41,1.777-0.6,2.672    C155.779,220.522,155.576,221.567,155.387,222.618z"/>
		<path fill="#8BBCE2" d="M350.752,174.21c-21.088-26.822-52.713-42.215-86.781-42.238c-34.074,0.023-65.699,15.416-86.785,42.238    l-9.945-7.818c23.471-29.857,58.668-47.006,96.596-47.07c0.039-0.002,0.086-0.002,0.135,0c0.045,0,0.092,0.002,0.131,0    c37.926,0.064,73.123,17.213,96.596,47.07L350.752,174.21z"/>
		<path fill="#8BBCE2" d="M372.551,222.618c-0.189-1.051-0.393-2.096-0.613-3.137c-0.188-0.887-0.387-1.777-0.598-2.662    c-2.178-9.191-5.547-18.084-10.014-26.428l11.154-5.967c4.98,9.305,8.738,19.221,11.168,29.473    c0.234,0.986,0.455,1.979,0.668,2.975c0.244,1.168,0.475,2.336,0.686,3.508L372.551,222.618z"/>
		<path fill="#8BBCE2" d="M264.053,365.489c-67.867,0-123.084-55.215-123.084-123.084h12.65    c0,60.895,49.539,110.434,110.434,110.434S374.486,303.3,374.486,242.405h12.65C387.137,310.274,331.922,365.489,264.053,365.489z    "/>
	</g>
	<rect x="257.729" y="63.579" fill="#8BBCE2" width="12.65" height="32.051"/>
	
		<rect x="303.395" y="70.901" transform="matrix(0.9608 0.2772 -0.2772 0.9608 36.2422 -82.4618)" fill="#8BBCE2" width="12.652" height="32.053"/>
	
		<rect x="204.506" y="78.855" transform="matrix(0.2639 0.9646 -0.9646 0.2639 244.5049 -150.0125)" fill="#8BBCE2" width="32.052" height="12.649"/>
	<path fill="#0062A6" d="M334.594,205.493l-22.451-19.518c-1.15-1-2.625-1.551-4.148-1.551H216c-1.672,0-3.273,0.66-4.459,1.836   l-19.646,19.518c-1.195,1.189-1.865,2.803-1.865,4.488v23.436c0,1.42,0.479,2.801,1.357,3.918l67.512,85.566   c1.199,1.52,3.029,2.406,4.967,2.406c0.006,0,0.012,0,0.02,0c1.945-0.008,3.777-0.906,4.971-2.441l66.58-85.566   c0.865-1.109,1.334-2.477,1.334-3.883v-23.436C336.77,208.437,335.977,206.694,334.594,205.493z M324.121,213.149v13.219h-21.15   l-11.729-29.295h14.387L324.121,213.149z M227.262,239.019l22.436,52.082l-41.094-52.082H227.262z M238.383,226.368l11.727-29.295   h27.508l13.076,32.658l-26.828,62.285l-22.83-52.998h27.977v-12.65H238.383z M300.467,239.019h17.826l-39.932,51.32   L300.467,239.019z M218.607,197.073h17.877l-11.729,29.295h-22.078v-13.469L218.607,197.073z"/>
	<path fill="#7ED4F8" d="M52.42,501.192h34.943c2.529,0,4.58-2.051,4.58-4.58v-89.32c0-2.859-2.318-5.178-5.178-5.178H53.02   c-2.861,0-5.18,2.318-5.18,5.178v89.32C47.84,499.142,49.891,501.192,52.42,501.192z"/>
	<path fill="#7ED4F8" d="M116.963,501.192h34.945c2.529,0,4.58-2.051,4.58-4.58v-62.867c0-2.861-2.318-5.178-5.18-5.178h-33.748   c-2.859,0-5.178,2.316-5.178,5.178v62.867C112.383,499.142,114.434,501.192,116.963,501.192z"/>
	<path fill="#7ED4F8" d="M181.506,501.192h34.945c2.529,0,4.578-2.051,4.578-4.58v-35.357c0-2.859-2.318-5.178-5.178-5.178h-33.748   c-2.859,0-5.176,2.318-5.176,5.178v35.357C176.928,499.142,178.979,501.192,181.506,501.192z"/>
	<rect x="412.08" y="11.317" fill="#0062A6" width="91.574" height="12.65"/>
	<rect x="8.383" y="228.046" fill="#61D0A9" width="91.574" height="12.65"/>
	<rect x="434.211" y="64.206" fill="#0062A6" width="69.443" height="12.65"/>
	<rect x="434.211" y="90.661" fill="#0062A6" width="69.443" height="12.65"/>
	<rect x="453.797" y="37.751" fill="#0062A6" width="49.857" height="12.65"/>
	<rect x="8.129" y="254.481" fill="#61D0A9" width="49.855" height="12.65"/>
	<g>
		<g>
			<path fill="#61D0A9" d="M414.166,472.036c-0.021,4.254-5.289,8.141-13.938,11.016c-3.658,1.242-7.912,2.301-12.648,3.129     c-7.545,1.311-16.24,2.068-25.51,2.068c-28.773-0.021-52.094-7.289-52.094-16.236c0-0.07-0.07-28.404-0.115-43.494     c3.082,1.771,6.832,3.381,11.432,4.832c11.016,3.449,25.436,5.334,40.594,5.334c8.648,0,17.459-0.598,25.693-1.885     c4.438-0.668,8.693-1.564,12.648-2.691c5.15-1.449,9.82-3.289,13.73-5.543v-2.783     C414.029,439.835,414.166,471.989,414.166,472.036z"/>
			<path fill="#299092" d="M414.027,440.194c0,0.529-0.023,0.859-0.023,0.859c0,8.947-23.328,16.184-52.078,16.184     c-0.021,0-0.045,0-0.045,0c-27.117,0-49.506-6.514-51.967-14.771c0,3.658,0.047,10.93,0.023,17.324     c3.037,1.725,6.818,3.359,11.348,4.762c11.018,3.451,25.439,5.336,40.596,5.336c19.434,0,39.674-2.906,52.23-10.221     C414.074,450.716,414.027,440.194,414.027,440.194z"/>
		</g>
		<g>
			<path fill="#BBEBDA" d="M413.975,409.812c0,4.232-5.219,8.096-13.752,10.994c-3.656,1.219-7.914,2.301-12.65,3.129     c-7.566,1.334-16.354,2.094-25.691,2.094c-28.771,0-52.072-7.27-52.072-16.238c0-8.947,23.322-16.217,52.096-16.217     c9.336,0.023,18.102,0.783,25.668,2.141c4.736,0.826,8.994,1.885,12.65,3.127C408.777,401.716,413.975,405.581,413.975,409.812z"/>
			<path fill="#299092" d="M404.137,419.319c-1.217,0.529-2.506,1.035-3.908,1.494c-3.658,1.242-7.912,2.301-12.648,3.129     c-7.568,1.334-16.332,2.094-25.646,2.094c-0.023,0-0.023,0-0.047,0c-17.363,0-32.729-2.646-42.182-6.74     c-5.936-2.529-9.521-5.658-9.844-9.016c0,2.875-0.023,11.041-0.047,18.215c0.023,0,0.023,0.023,0.047,0.023     c3.082,1.771,6.832,3.381,11.432,4.832c11.016,3.449,25.436,5.334,40.594,5.334c8.648,0,17.459-0.598,25.693-1.885     c4.438-0.668,8.693-1.564,12.648-2.691c5.15-1.449,9.82-3.289,13.73-5.543v-18.469     C413.797,413.546,410.164,416.722,404.137,419.319z M413.938,409.222c0.021,0.092,0.021,0.207,0.021,0.322     c0-0.207,0-0.322,0-0.322H413.938z"/>
		</g>
	</g>
	<path fill="#BBEBDA" d="M504.389,360.294v0.113c0,0.07,0,0.117,0,0.117v1.793c-3.496,7.957-25.689,14.307-52.025,14.307   c-0.023,0-0.047,0-0.047,0c-26.451,0-48.691-6.395-52.094-14.375v-1.863c0-8.947,23.32-16.217,52.094-16.217   c28.107,0.023,51.016,6.971,52.025,15.641C504.365,359.948,504.389,360.132,504.389,360.294z"/>
	<path fill="#61D0A9" d="M504.389,379.13v109.088c0,8.971-23.322,16.217-52.072,16.217c-28.773-0.023-52.094-7.291-52.094-16.238   l0.047-67.461l0.02-29.346l-0.066-12.33c3.059,1.703,7.105,3.521,11.5,4.877c11.018,3.451,25.438,5.338,40.57,5.338   C471.408,389.274,491.785,386.169,504.389,379.13z"/>
	<path fill="#299092" d="M504.389,456.364c-2.461,8.256-24.955,14.721-52.025,14.721c-0.023,0-0.047,0-0.047,0   c-27.117,0-49.627-6.42-52.066-14.678c0,0-0.006,8.773-0.027,17.123c3.082,1.771,6.877,3.418,11.5,4.869   c11.018,3.426,25.438,5.334,40.57,5.334c19.367,0,39.539-2.898,52.096-10.143C504.389,465.241,504.389,456.364,504.389,456.364z"/>
	<path fill="#299092" d="M504.389,423.036c-0.713,8.764-23.758,15.779-52.025,15.779c-0.023,0-0.047,0-0.047,0   c-27.877,0-50.645-6.826-52.049-15.406c0,1.91,0.008,10.26-0.014,17.873c3.082,1.771,6.846,3.42,11.469,4.846   c11.018,3.451,25.438,5.336,40.57,5.336c19.367,0,39.539-2.896,52.096-10.119C504.389,432.673,504.389,423.036,504.389,423.036z"/>
	<path fill="#299092" d="M452.363,407.835c-0.023,0-0.047,0-0.047,0c-27.877,0-50.623-6.832-52.027-15.412   c0,3.336-0.014,11.09-0.014,17.891c3.084,1.771,6.824,3.385,11.447,4.836c11.018,3.449,25.438,5.334,40.57,5.334   c19.367,0,39.539-2.898,52.096-10.119V391.62C504.389,400.589,481.09,407.835,452.363,407.835z"/>
	<g>
		<path fill="#299092" d="M504.389,362.317v16.813c-12.604,7.039-32.98,10.145-52.096,10.145c-15.133,0-29.553-1.887-40.57-5.338    c-4.395-1.355-8.441-3.174-11.5-4.877v-16.811c3.402,7.98,25.643,14.375,52.094,14.375c0,0,0.023,0,0.047,0    C478.699,376.624,500.893,370.274,504.389,362.317z"/>
	</g>
	<path fill="#61D0A9" d="M400.285,398.856l-0.016,21.945c-3.656,1.24-7.961,2.305-12.697,3.133v-28.221   C392.309,396.54,396.629,397.614,400.285,398.856z"/>
	<path fill="#299092" d="M400.27,420.802l-0.016,20.557v12.824l-0.031,20.895v7.967c-3.656,1.242-7.914,2.299-12.65,3.129v-62.238   C392.309,423.106,396.582,422.042,400.27,420.802z"/>
</g>
</svg>
