<?xml version="1.0" encoding="utf-8"?>
<!-- Generator: Adobe Illustrator 16.0.0, SVG Export Plug-In . SVG Version: 6.00 Build 0)  -->
<!DOCTYPE svg PUBLIC "-//W3C//DTD SVG 1.1//EN" "http://www.w3.org/Graphics/SVG/1.1/DTD/svg11.dtd">
<svg xmlns="http://www.w3.org/2000/svg" xmlns:xlink="http://www.w3.org/1999/xlink" version="1.1" id="big_x5F_data" x="0px" y="0px" width="512" height="512" viewBox="0 0 512 512" enable-background="new 0 0 512 512" xml:space="preserve">
<g>
	<path fill="#8BBCE2" d="M255.795,309.005v27.6h12.648v-27.6H255.795z M255.795,267.604v27.6h12.648v-27.6H255.795z M255.795,228.36   v25.443h12.648V228.36H255.795z"/>
	<path fill="#8BBCE2" d="M268.457,350.396v27.828c-1.588-0.137-3.197-0.205-4.83-0.205c-2.67,0-5.291,0.184-7.82,0.574v-28.197   H268.457z"/>
	<path fill="#3081BE" d="M268.457,365.507v12.717c-1.588-0.137-3.197-0.205-4.83-0.205c-2.67,0-5.291,0.184-7.82,0.574v-12.787   c2.553-0.299,5.176-0.461,7.842-0.461C265.26,365.345,266.869,365.415,268.457,365.507z"/>
	<g>
		<g>
			<path fill="#61D0A9" d="M166.879,288.771l-73.166,0.023l0.012,24.158l0.014,24.143c0,6.301,16.375,11.406,36.594,11.385     c20.236,0,36.615-5.105,36.615-11.408c0-0.027-0.018-4.395-0.023-10.494c-0.004-4.408,0.008-9.723,0-14.957     C166.906,299.995,166.879,288.771,166.879,288.771z"/>
			<path fill="#299092" d="M166.924,313.265c-0.414,6.188-16.65,11.156-36.592,11.18c-0.025,0-0.025,0-0.047,0     c-19.871,0-36.078-4.947-36.561-11.109l0.014,13.203c2.139,1.219,4.76,2.344,7.955,3.334c7.754,2.438,17.92,3.771,28.592,3.771     c10.719-0.021,20.883-1.355,28.658-3.771c3.195-1.012,5.842-2.141,7.98-3.383C166.924,321.384,166.924,315.841,166.924,313.265z"/>
		</g>
		<g>
			<path fill="#BBEBDA" d="M93.703,288.798c0.002,6.301,16.395,11.402,36.615,11.395c20.219-0.004,36.609-5.113,36.609-11.412     c-0.002-6.299-16.396-11.398-36.615-11.395C110.09,277.394,93.701,282.501,93.703,288.798z"/>
			<path fill="#299092" d="M166.879,289.368c-0.992,6.027-16.975,10.811-36.572,10.834h-0.021c-19.871,0-36.066-4.945-36.572-11.109     v13.203c2.141,1.219,4.762,2.344,7.959,3.334c7.775,2.438,17.941,3.771,28.613,3.771c13.57-0.021,27.691-2.045,36.615-7.105     C166.9,296.937,166.879,291.208,166.879,289.368z"/>
		</g>
	</g>
	<path fill="#8BBCE2" d="M475.182,380.296v88.779c0,3.471-2.83,6.324-6.326,6.324h-79.717v-1.127c-0.07-4.07-0.992-7.98-2.6-11.523   h75.992v-82.453H475.182z"/>
	<path fill="#8BBCE2" d="M135.125,474.548c0,0.277,0,0.576,0.021,0.852H53.521c-3.496,0-6.324-2.854-6.324-6.324v-88.779h12.65   v82.453h77.877C136.09,466.384,135.172,470.386,135.125,474.548z"/>
	<path fill="#FFCFA7" d="M99.305,10.401v113.23c0,1.516-1.242,2.736-2.762,2.736H10.479c-1.52,0-2.738-1.221-2.738-2.736V10.401   c0-1.518,1.219-2.734,2.738-2.734h86.064C98.063,7.667,99.305,8.884,99.305,10.401z"/>
	<g>
		<path fill="#FFCFA7" d="M128.33,43.476v112.105c0,1.828-1.484,3.311-3.313,3.311H40.076c-1.828,0-3.311-1.482-3.311-3.311V43.476    c0-1.828,1.482-3.311,3.311-3.311h84.941C126.846,40.165,128.33,41.647,128.33,43.476z"/>
		<path fill="#FF876B" d="M36.766,28.665c-6.371,0-11.5,5.15-11.5,11.5v86.203h11.5V43.419c0-1.797,1.459-3.254,3.256-3.254h59.283    v-11.5H36.766z"/>
	</g>
	<g>
		<path fill="#61D0A9" d="M80.787,266.276L7.625,266.3H7.604v73.898c0,6.303,16.398,11.408,36.615,11.408    c20.217-0.023,36.615-5.129,36.615-11.432c0-0.039-0.008-27.381-0.021-48.791C80.803,277.606,80.787,266.286,80.787,266.276z"/>
		<path fill="#299092" d="M80.813,315.521c-0.99,6.025-16.998,10.811-36.594,10.811h-0.025c-20.215,0-36.59-5.107-36.59-11.387    v13.48c2.16,1.217,4.783,2.367,7.98,3.357c7.773,2.414,17.916,3.748,28.609,3.748c13.572,0,27.695-2.023,36.619-7.105    C80.813,323.593,80.813,318.464,80.813,315.521z"/>
		<g>
			<path fill="#299092" d="M80.813,291.435c-0.99,6.027-16.998,10.813-36.594,10.813h-0.025c-20.215,0-36.59-5.104-36.59-11.383     v13.477c2.16,1.221,4.783,2.371,7.98,3.359c7.773,2.416,17.916,3.748,28.609,3.748c10.719,0,20.887-1.332,28.66-3.771     c3.174-0.988,7.959-3.357,7.959-3.357S80.82,294.948,80.813,291.435z"/>
		</g>
		<g>
			<path fill="#BBEBDA" d="M7.598,266.616c0.004,6.297,16.395,11.4,36.615,11.395c20.221-0.004,36.611-5.115,36.611-11.412     c-0.004-6.299-16.396-11.402-36.617-11.395C23.986,255.208,7.596,260.317,7.598,266.616z"/>
			<path fill="#299092" d="M80.787,266.899c-0.457,6.162-16.674,11.107-36.568,11.107c-0.025,0-0.025,0-0.047,0     c-20.193,0-36.568-5.105-36.568-11.385v13.477c2.16,1.221,4.783,2.371,7.98,3.359c7.773,2.416,17.916,3.748,28.588,3.748     c10.719,0,20.885-1.332,28.66-3.748c3.195-0.988,5.84-2.139,7.98-3.359C80.813,274.647,80.787,268.784,80.787,266.899z      M7.604,266.3c0,0,0,0.117,0,0.322c0-0.115,0-0.205,0.021-0.322H7.604z"/>
		</g>
	</g>
	<g>
		<path fill="#7ED4F8" d="M186.59,158.886h30.402c2.199,0,3.982-1.783,3.982-3.984V66.819c0-2.486-2.016-4.504-4.502-4.504h-29.361    c-2.488,0-4.506,2.018-4.506,4.504v88.082C182.605,157.103,184.391,158.886,186.59,158.886z"/>
		<path fill="#7ED4F8" d="M246.926,158.886h30.402c2.201,0,3.984-1.783,3.984-3.984V89.833c0-2.488-2.018-4.504-4.506-4.504h-29.359    c-2.488,0-4.506,2.016-4.506,4.504v65.068C242.941,157.103,244.725,158.886,246.926,158.886z"/>
		<path fill="#7ED4F8" d="M307.262,158.886h30.402c2.199,0,3.984-1.783,3.984-3.984v-41.135c0-2.488-2.018-4.506-4.506-4.506    h-29.361c-2.488,0-4.504,2.018-4.504,4.506v41.135C303.277,157.103,305.061,158.886,307.262,158.886z"/>
	</g>
	<rect x="341.648" y="265.192" fill="#61D0A9" width="162.752" height="12.65"/>
	<rect x="404.988" y="324.026" fill="#61D0A9" width="99.412" height="12.65"/>
	<rect x="370.205" y="294.606" fill="#61D0A9" width="134.195" height="12.65"/>
	<path fill="#0062A6" d="M389.139,474.272v1.127c-0.232,15.572-11.615,28.176-25.854,28.889l-201.203,0.045   c-14.766-0.066-26.75-12.947-26.936-28.934c-0.021-0.275-0.021-0.574-0.021-0.852c0.047-4.162,0.965-8.164,2.6-11.799   c2.922-6.646,8.188-12.074,14.672-15.018c3.705-1.701,7.27-2.299,10.627-2.186c3.152,0.115,6.004-2.186,6.9-5.451   c4.738-17.02,19.252-29.416,36.479-29.416c2.047,0,4.047,0.184,6.004,0.527c3.656,0.645,7.313-1.379,8.693-5.105   c5.889-15.709,18.906-25.186,34.707-27.508c2.529-0.391,5.15-0.574,7.82-0.574c1.633,0,3.242,0.068,4.83,0.205   c17.066,1.52,31.324,11.088,37.627,27.67c1.242,3.313,4.254,5.475,7.545,5.061c1.379-0.184,2.783-0.275,4.209-0.275   c17.225,0,31.762,12.396,36.502,29.416c0.896,3.266,3.748,5.566,6.877,5.451c3.381-0.113,6.945,0.506,10.672,2.186   c6.461,2.965,11.729,8.371,14.65,15.018C388.146,466.292,389.068,470.202,389.139,474.272z"/>
	<path fill="#3081BE" d="M400.006,462.759h-13.455c1.588,3.541,2.506,7.451,2.576,11.521v1.129h12.65c0.021-0.461,0-0.922,0-1.404   C401.707,470.142,401.088,466.37,400.006,462.759z"/>
	<path fill="#3081BE" d="M124.236,462.759c-1.129,3.727-1.725,7.658-1.773,11.662v0.988h12.676   c-0.025-0.277-0.025-0.576-0.025-0.852c0.047-4.162,0.969-8.166,2.6-11.799H124.236z"/>
	<path fill="#61D0A9" d="M492.902,60.013l-45.447,26.219V33.792C466.221,35.474,482.598,45.454,492.902,60.013z"/>
	<path fill="#7ED4F8" d="M504.402,96.19c0,32.709-25,59.549-56.947,62.424V99.526l51.268-29.395   C502.379,78.067,504.402,86.876,504.402,96.19z"/>
	<path fill="#FFCFA7" d="M435.955,33.792v124.822c-31.924-2.875-56.924-29.715-56.924-62.424   C379.031,63.509,404.031,36.667,435.955,33.792z"/>
	<path fill="#8BBCE2" d="M468.854,228.36H53.514c-3.494,0-6.326-2.832-6.326-6.324v-38.699h12.65v32.373h402.691v-32.373h12.65   v38.699C475.18,225.528,472.348,228.36,468.854,228.36z"/>
	<path fill="#007FD8" d="M498.723,70.132c-1.611-3.564-3.566-6.945-5.82-10.119l-45.447,26.219v-8.393V33.792   c-1.887-0.184-3.818-0.275-5.75-0.275c-1.934,0-3.865,0.092-5.75,0.275v44.047V96.19v62.424c1.885,0.186,3.816,0.277,5.75,0.277   c1.932,0,3.863-0.092,5.75-0.277v-59.08L498.723,70.132z"/>
</g>
</svg>
