<svg width="371" height="81" viewBox="0 0 371 81" fill="none" xmlns="http://www.w3.org/2000/svg">
<path d="M139.62 12.4099V67.6998H128.41V62.0599C127.24 64.0399 125.55 65.6499 123.5 66.6699C121.3 67.7699 118.81 68.3499 116.32 68.3499C113.24 68.4199 110.17 67.5399 107.6 65.7899C104.96 64.0299 102.91 61.6198 101.59 58.7598C100.13 55.4598 99.39 51.9499 99.47 48.3599C99.4 44.7699 100.13 41.2598 101.59 38.0298C102.91 35.2498 104.96 32.8298 107.52 31.1498C110.16 29.4698 113.23 28.6599 116.31 28.7299C118.73 28.7299 121.14 29.2398 123.27 30.3398C125.32 31.3698 127.01 32.8999 128.18 34.8099V16.1299L139.61 12.3898L139.62 12.4099ZM126.14 56.7899C127.6 54.8899 128.41 52.0998 128.41 48.5098C128.41 44.9198 127.68 42.2099 126.14 40.3099C124.6 38.4099 122.18 37.3099 119.7 37.3799C117.21 37.2299 114.79 38.3299 113.18 40.2399C111.64 42.1399 110.84 44.8499 110.84 48.3699C110.84 51.8899 111.65 54.7398 113.18 56.7198C114.72 58.6998 117.21 59.7998 119.7 59.7198C122.48 59.7198 124.68 58.6899 126.14 56.7899V56.7899ZM179.68 31.0798C182.32 32.7598 184.37 35.1798 185.61 37.9598C187.07 41.1798 187.81 44.6999 187.73 48.2899C187.8 51.8799 187.07 55.4699 185.61 58.6899C184.29 61.5499 182.24 63.9598 179.6 65.7198C177.04 67.3998 173.96 68.2798 170.89 68.2098C168.4 68.2798 165.91 67.6998 163.71 66.5298C161.66 65.4998 159.97 63.8899 158.88 61.9199V67.6299H147.6V16.1398L158.95 12.3998V34.9598C160.05 32.9798 161.73 31.3699 163.78 30.3499C165.98 29.1799 168.39 28.5899 170.88 28.6699C173.96 28.5999 177.03 29.4798 179.67 31.0898L179.68 31.0798ZM174.11 56.7098C175.65 54.7298 176.38 51.9499 176.38 48.2899C176.38 44.6299 175.65 42.0599 174.11 40.1599C172.57 38.2599 170.45 37.2999 167.67 37.2999C165.18 37.1499 162.76 38.2499 161.15 40.2299C159.61 42.2099 158.88 44.9199 158.88 48.4299C158.88 51.9399 159.61 54.7998 161.15 56.7098C162.69 58.6898 165.1 59.7898 167.67 59.6398C170.16 59.7898 172.58 58.6898 174.11 56.7098ZM203.41 38.1099H213.08V29.6099H203.41V17.0098L192.06 20.6699V53.1099C192.06 57.9399 193.31 61.6799 195.8 64.3199C198.29 66.9599 201.88 68.2698 206.57 68.2698C208.77 68.3398 210.96 67.9799 213.09 67.2399V58.4498C211.92 58.7398 210.6 58.9598 209.35 58.9598C207.74 59.0298 206.2 58.5199 205.03 57.4999C204 56.5499 203.42 55.0098 203.42 52.8898V38.0999L203.41 38.1099ZM139.62 12.3998V67.6899H128.41V62.0499C127.24 64.0299 125.55 65.6399 123.5 66.6599C121.3 67.7599 118.81 68.3398 116.32 68.3398C113.24 68.4098 110.17 67.5298 107.6 65.7798C104.96 64.0198 102.91 61.6099 101.59 58.7499C100.13 55.4499 99.39 51.9399 99.47 48.3499C99.4 44.7599 100.13 41.2498 101.59 38.0198C102.91 35.2398 104.96 32.8198 107.52 31.1398C110.16 29.4598 113.23 28.6498 116.31 28.7198C118.73 28.7198 121.14 29.2298 123.27 30.3298C125.32 31.3598 127.01 32.8899 128.18 34.7999V16.1199L139.61 12.3799L139.62 12.3998ZM126.14 56.7798C127.6 54.8798 128.41 52.0899 128.41 48.4999C128.41 44.9099 127.68 42.1999 126.14 40.2999C124.6 38.3999 122.18 37.2999 119.7 37.3699C117.21 37.2199 114.79 38.3199 113.18 40.2299C111.64 42.1299 110.84 44.8399 110.84 48.3599C110.84 51.8799 111.65 54.7298 113.18 56.7098C114.72 58.6898 117.21 59.7898 119.7 59.7098C122.48 59.7098 124.68 58.6798 126.14 56.7798V56.7798ZM179.68 31.0699C182.32 32.7499 184.37 35.1698 185.61 37.9498C187.07 41.1698 187.81 44.6898 187.73 48.2798C187.8 51.8698 187.07 55.4599 185.61 58.6799C184.29 61.5399 182.24 63.9498 179.6 65.7098C177.04 67.3898 173.96 68.2698 170.89 68.1998C168.4 68.2698 165.91 67.6898 163.71 66.5198C161.66 65.4898 159.97 63.8799 158.88 61.9099V67.6199H147.6V16.1299L158.95 12.3898V34.9498C160.05 32.9698 161.73 31.3598 163.78 30.3398C165.98 29.1698 168.39 28.5799 170.88 28.6599C173.96 28.5899 177.03 29.4698 179.67 31.0798L179.68 31.0699ZM174.11 56.6998C175.65 54.7198 176.38 51.9398 176.38 48.2798C176.38 44.6198 175.65 42.0498 174.11 40.1498C172.57 38.2498 170.45 37.2899 167.67 37.2899C165.18 37.1399 162.76 38.2398 161.15 40.2198C159.61 42.1998 158.88 44.9099 158.88 48.4199C158.88 51.9299 159.61 54.7898 161.15 56.6998C162.69 58.6798 165.1 59.7799 167.67 59.6299C170.16 59.7799 172.58 58.6798 174.11 56.6998ZM203.41 38.0999H213.08V29.5999H203.41V16.9999L192.06 20.6599V53.0999C192.06 57.9299 193.31 61.6699 195.8 64.3099C198.29 66.9499 201.88 68.2598 206.57 68.2598C208.77 68.3298 210.96 67.9699 213.09 67.2299V58.4399C211.92 58.7299 210.6 58.9498 209.35 58.9498C207.74 59.0198 206.2 58.5099 205.03 57.4899C204 56.5399 203.42 54.9999 203.42 52.8799V38.0898L203.41 38.0999ZM316.96 30.6398C312.94 30.6398 308.92 32.8199 305.63 35.6599L305.83 29.1998V14.2798L299.73 17.8998V67.6899H305.16V63.8898C308.36 66.7798 312.29 68.5098 315.65 68.5098C323.9 68.5098 331.27 61.3299 331.27 48.9999C331.29 37.8799 326.28 30.6398 316.96 30.6398ZM324.62 53.2698C324.48 55.1798 323.98 57.0498 323.14 58.7698C322.82 59.3698 322.45 59.9499 322.03 60.4799C321.48 61.1399 320.83 61.6998 320.1 62.1498C318.62 62.9898 316.94 63.4099 315.24 63.3599H314.91C313.32 63.3599 311.76 62.9499 310.38 62.1599C309.65 61.7099 309 61.1499 308.45 60.4899C308.03 59.9599 307.65 59.3798 307.34 58.7798C306.47 56.9898 305.96 55.0499 305.84 53.0699C305.72 51.8999 305.68 50.7098 305.68 49.5798C305.68 48.4498 305.73 47.2498 305.84 46.0898C305.96 44.0998 306.46 42.1499 307.33 40.3599C307.57 39.9099 307.84 39.4799 308.13 39.0599L308.43 38.6699C308.98 38.0099 309.63 37.4499 310.36 36.9999C311.85 36.1699 313.54 35.7698 315.24 35.8298H315.37C315.76 35.8298 316.15 35.8298 316.55 35.8998L317.08 35.9698C317.29 35.9998 317.49 36.0398 317.7 36.0898L318.01 36.1599L318.23 36.2098L318.6 36.3298C319.13 36.5098 319.64 36.7499 320.12 37.0399C320.85 37.4899 321.5 38.0498 322.05 38.7098C322.47 39.2198 322.84 39.7799 323.16 40.3599C324.46 42.6999 324.83 46.3599 324.83 49.5699C324.83 50.8099 324.77 52.0498 324.65 53.2798L324.62 53.2698ZM238.03 62.3898V18.9799V14.3298L231.83 18.0999V18.9498V67.6498H259.29V62.3998H238.03V62.3898ZM262.78 58.3099C262.78 50.4499 269.56 46.5399 284.94 44.8499C284.94 40.2099 283.38 35.7299 277.49 35.7299C273.32 35.7299 269.56 37.6999 266.73 39.5999L264.34 35.4199C267.66 33.2399 272.72 30.6998 278.52 30.6998C287.33 30.6998 291.05 36.5599 291.05 45.5399V67.6799H285.42V63.3599C281.98 66.2199 277.76 68.5599 273.29 68.5599C267.32 68.5599 262.79 64.8499 262.79 58.2999L262.78 58.3099ZM284.94 56.0198C284.94 55.0998 284.73 54.1999 284.33 53.3799C283.9 52.5699 283.37 51.8598 282.69 51.2598C281.97 50.6998 281.41 50.3499 280.42 50.0599C279.52 49.8699 278.33 49.9699 277.44 50.1899C271.1 51.8499 268.74 54.3899 268.74 57.8799C268.74 61.9799 271.53 63.6599 275.08 63.6599C277.74 63.6599 280.05 62.6598 282.55 60.8298C283.29 60.2698 283.9 59.5498 284.31 58.7098C284.72 57.8798 284.94 56.9598 284.93 56.0298L284.94 56.0198ZM334.12 63.5399L337.13 59.5198C340.26 62.0398 343.47 63.7899 347.78 63.7899C352.51 63.7899 354.87 61.2599 354.87 58.1899C354.87 54.4799 350.61 52.8299 346.61 51.3499C341.56 49.5399 335.85 47.0099 335.85 40.9299C335.85 34.8499 340.48 30.6799 348.3 30.6799C352.39 30.7399 356.34 32.1699 359.52 34.7399L356.6 38.6498C354.11 36.8398 351.57 35.4498 348.37 35.4498C343.84 35.4498 341.73 37.8699 341.73 40.6199C341.73 44.0499 345.65 45.3599 349.74 46.8799C354.94 48.8399 360.74 50.9499 360.74 57.8199C360.74 63.6799 356.1 68.5499 347.58 68.5499C342.65 68.4599 337.91 66.6899 334.12 63.5399V63.5399Z" fill="white"/>
<path d="M78.47 3.37C80.37 5.2 81.62 7.62 81.91 10.25C81.91 11.35 81.62 12.08 80.96 13.47C80.3 14.86 72.17 28.92 69.75 32.8C68.36 35.07 67.63 37.78 67.63 40.42C67.63 43.06 68.36 45.77 69.75 48.04C72.17 51.92 80.3 66.06 80.96 67.45C81.62 68.84 81.91 69.5 81.91 70.6C81.62 73.24 80.45 75.65 78.54 77.41C76.71 79.31 74.29 80.56 71.73 80.78C70.63 80.78 69.9 80.49 68.58 79.83C67.26 79.17 52.91 71.26 49.03 68.84C48.74 68.69 48.44 68.47 48.08 68.33L28.89 56.98C29.33 60.64 30.94 64.16 33.58 66.72C34.09 67.23 34.61 67.67 35.19 68.11C34.75 68.33 34.24 68.55 33.8 68.84C29.92 71.26 15.78 79.39 14.39 80.05C13 80.71 12.34 81 11.17 81C8.52998 80.71 6.11999 79.54 4.35999 77.63C2.45999 75.8 1.20998 73.38 0.919983 70.75C0.989983 69.65 1.29 68.55 1.87 67.6C2.53 66.21 10.66 52.07 13.08 48.19C14.47 45.92 15.2 43.28 15.2 40.57C15.2 37.86 14.47 35.22 13.08 32.95C10.66 28.92 2.46 14.79 1.87 13.4C1.28 12.45 0.989983 11.35 0.919983 10.25C1.20998 7.61 2.37998 5.2 4.28998 3.37C6.11998 1.47 8.53998 0.29 11.17 0C12.27 0.07 13.37 0.369951 14.39 0.949951C15.56 1.45995 25.89 7.47 31.38 10.69L32.63 11.42C33.07 11.71 33.44 11.93 33.73 12.08L34.32 12.45L53.87 24.02C53.43 19.63 51.16 15.6 47.64 12.89C48.08 12.67 48.59 12.45 49.03 12.16C52.91 9.73997 67.05 1.53995 68.44 0.949951C69.39 0.359951 70.49 0.07 71.66 0C74.22 0.29 76.64 1.46 78.47 3.37V3.37ZM42.44 45.7L46.61 41.53C47.2 40.94 47.2 40.07 46.61 39.48L42.44 35.31C41.85 34.72 40.98 34.72 40.39 35.31L36.22 39.48C35.63 40.07 35.63 40.94 36.22 41.53L40.39 45.7C40.9 46.21 41.85 46.21 42.44 45.7Z" fill="white"/>
<path d="M370.12 64.3599L368.91 67.7499H368.47L367.26 64.3699V67.7499H366.49V63.1299H367.45L368.69 66.5599L369.93 63.1299H370.89V67.7499H370.12V64.3599Z" fill="white"/>
<path d="M365.81 63.8298H364.54V67.7499H363.76V63.8298H362.49V63.1299H365.81V63.8298Z" fill="white"/>
</svg>
