<svg height="85" viewBox="0 0 85 117" xmlns="http://www.w3.org/2000/svg" > 
<path d="M2.456 0.275999H7.892C9.716 0.275999 11.3 0.551999 12.644 1.104C13.988 1.656 15.104 2.448 15.992 3.48C16.88 4.512 17.54 5.748 17.972 7.188C18.404 8.628 18.62 10.248 18.62 12.048C18.62 13.848 18.404 15.492 17.972 16.98C17.54 18.444 16.88 19.704 15.992 20.76C15.104 21.792 13.988 22.596 12.644 23.172C11.3 23.724 9.728 24 7.928 24H2.456V0.275999ZM7.748 22.596C9.332 22.596 10.7 22.344 11.852 21.84C13.004 21.312 13.952 20.58 14.696 19.644C15.44 18.708 15.992 17.604 16.352 16.332C16.712 15.036 16.892 13.608 16.892 12.048C16.892 10.512 16.712 9.108 16.352 7.836C15.992 6.564 15.44 5.472 14.696 4.56C13.952 3.648 13.004 2.94 11.852 2.436C10.7 1.932 9.332 1.68 7.748 1.68H4.112V22.596H7.748ZM23.8979 19.68C23.8979 18.72 24.1499 17.88 24.6539 17.16C25.1579 16.44 25.9379 15.816 26.9939 15.288C28.0739 14.76 29.4419 14.328 31.0979 13.992C32.7779 13.656 34.7939 13.38 37.1459 13.164C37.1459 12.444 37.0619 11.76 36.8939 11.112C36.7259 10.44 36.4379 9.852 36.0299 9.348C35.6459 8.844 35.1179 8.448 34.4459 8.16C33.7979 7.848 32.9819 7.692 31.9979 7.692C31.3499 7.692 30.7139 7.764 30.0899 7.908C29.4659 8.052 28.8659 8.244 28.2899 8.484C27.7139 8.724 27.1859 8.988 26.7059 9.276C26.2259 9.54 25.8059 9.792 25.4459 10.032L24.7259 8.844C25.0619 8.604 25.4939 8.34 26.0219 8.052C26.5739 7.74 27.1739 7.464 27.8219 7.224C28.4699 6.96 29.1659 6.744 29.9099 6.576C30.6539 6.384 31.4099 6.288 32.1779 6.288C33.3299 6.288 34.3139 6.468 35.1299 6.828C35.9699 7.164 36.6539 7.632 37.1819 8.232C37.7099 8.832 38.0939 9.54 38.3339 10.356C38.5979 11.148 38.7299 12.012 38.7299 12.948V24H37.3979L37.2179 21.408H37.1459C36.1379 22.2 34.9979 22.908 33.7259 23.532C32.4779 24.132 31.2059 24.432 29.9099 24.432C29.1419 24.432 28.3859 24.336 27.6419 24.144C26.9219 23.952 26.2859 23.664 25.7339 23.28C25.1819 22.896 24.7379 22.404 24.4019 21.804C24.0659 21.204 23.8979 20.496 23.8979 19.68ZM25.5179 19.608C25.5179 20.232 25.6499 20.76 25.9139 21.192C26.1779 21.624 26.5259 21.984 26.9579 22.272C27.4139 22.536 27.9179 22.74 28.4699 22.884C29.0459 23.004 29.6219 23.064 30.1979 23.064C32.3339 23.064 34.6499 22.02 37.1459 19.932V14.388C34.9379 14.58 33.0899 14.832 31.6019 15.144C30.1379 15.456 28.9499 15.828 28.0379 16.26C27.1259 16.692 26.4779 17.184 26.0939 17.736C25.7099 18.288 25.5179 18.912 25.5179 19.608ZM50.2719 8.088H45.0519V6.864L50.3079 6.72L50.5239 1.716H51.8559V6.72H61.0719V8.088H51.8559V17.664C51.8559 18.504 51.9279 19.26 52.0719 19.932C52.2159 20.58 52.4679 21.144 52.8279 21.624C53.1879 22.08 53.6679 22.428 54.2679 22.668C54.8919 22.908 55.6839 23.028 56.6439 23.028C57.5559 23.028 58.3839 22.956 59.1279 22.812C59.8719 22.644 60.5919 22.416 61.2879 22.128L61.7199 23.352C60.9519 23.688 60.0879 23.952 59.1279 24.144C58.1679 24.336 57.2679 24.432 56.4279 24.432C55.2519 24.432 54.2679 24.264 53.4759 23.928C52.6839 23.592 52.0479 23.124 51.5679 22.524C51.1119 21.924 50.7759 21.204 50.5599 20.364C50.3679 19.5 50.2719 18.552 50.2719 17.52V8.088ZM67.0698 19.68C67.0698 18.72 67.3218 17.88 67.8258 17.16C68.3298 16.44 69.1098 15.816 70.1658 15.288C71.2458 14.76 72.6138 14.328 74.2698 13.992C75.9498 13.656 77.9658 13.38 80.3178 13.164C80.3178 12.444 80.2338 11.76 80.0658 11.112C79.8978 10.44 79.6098 9.852 79.2018 9.348C78.8178 8.844 78.2898 8.448 77.6178 8.16C76.9698 7.848 76.1538 7.692 75.1698 7.692C74.5218 7.692 73.8858 7.764 73.2618 7.908C72.6378 8.052 72.0378 8.244 71.4618 8.484C70.8858 8.724 70.3578 8.988 69.8778 9.276C69.3978 9.54 68.9778 9.792 68.6178 10.032L67.8978 8.844C68.2338 8.604 68.6658 8.34 69.1938 8.052C69.7458 7.74 70.3458 7.464 70.9938 7.224C71.6418 6.96 72.3378 6.744 73.0818 6.576C73.8258 6.384 74.5818 6.288 75.3498 6.288C76.5018 6.288 77.4858 6.468 78.3018 6.828C79.1418 7.164 79.8258 7.632 80.3538 8.232C80.8818 8.832 81.2658 9.54 81.5058 10.356C81.7698 11.148 81.9018 12.012 81.9018 12.948V24H80.5698L80.3898 21.408H80.3178C79.3098 22.2 78.1698 22.908 76.8978 23.532C75.6498 24.132 74.3778 24.432 73.0818 24.432C72.3138 24.432 71.5578 24.336 70.8138 24.144C70.0938 23.952 69.4578 23.664 68.9058 23.28C68.3538 22.896 67.9098 22.404 67.5738 21.804C67.2378 21.204 67.0698 20.496 67.0698 19.68ZM68.6898 19.608C68.6898 20.232 68.8218 20.76 69.0858 21.192C69.3498 21.624 69.6978 21.984 70.1298 22.272C70.5858 22.536 71.0898 22.74 71.6418 22.884C72.2178 23.004 72.7938 23.064 73.3698 23.064C75.5058 23.064 77.8218 22.02 80.3178 19.932V14.388C78.1098 14.58 76.2618 14.832 74.7738 15.144C73.3098 15.456 72.1218 15.828 71.2098 16.26C70.2978 16.692 69.6498 17.184 69.2658 17.736C68.8818 18.288 68.6898 18.912 68.6898 19.608ZM3.06055 63.7344L2.30469 65H0.916016L0.652344 56.4746H2.05859C3.48828 61.4902 6.00781 63.998 9.61719 63.998C12.7578 63.998 14.3281 62.5332 14.3281 59.6035C14.3281 58.7246 14.1172 57.9219 13.6953 57.1953C13.2734 56.4688 12.7695 55.9121 12.1836 55.5254C11.6094 55.1387 10.7422 54.7285 9.58203 54.2949C7.27344 53.4512 5.62695 52.7539 4.64258 52.2031C3.6582 51.6406 2.86133 50.8613 2.25195 49.8652C1.64258 48.8691 1.33789 47.6738 1.33789 46.2793C1.33789 44.3926 2.07617 42.793 3.55273 41.4805C5.04102 40.168 6.82227 39.5117 8.89648 39.5117C10.7246 39.5117 12.5879 40.0859 14.4863 41.2344L15.207 40.0566H16.5957L16.7539 48.3359H15.3125C14.5508 45.5117 13.6484 43.5898 12.6055 42.5703C11.5625 41.5391 10.2559 41.0234 8.68555 41.0234C7.54883 41.0234 6.59375 41.3867 5.82031 42.1133C5.04688 42.8281 4.66016 43.7012 4.66016 44.7324C4.66016 45.9512 4.98828 46.959 5.64453 47.7559C6.3125 48.5527 7.80078 49.3672 10.1094 50.1992C13.0742 51.2773 15.0957 52.373 16.1738 53.4863C17.252 54.5879 17.791 56.0645 17.791 57.916C17.791 60.1309 16.9766 61.9531 15.3477 63.3828C13.7305 64.8008 11.7148 65.5098 9.30078 65.5098C7.13281 65.5098 5.05273 64.918 3.06055 63.7344ZM31.2031 64.2441C29.5156 64.9824 27.957 65.3516 26.5273 65.3516C23.8789 65.3516 22.5547 63.9629 22.5547 61.1855V49.4082H19.4258V47.7559H22.6426V42.3594H25.8418V47.7559H30.7988V49.4082H25.877V59.0938C25.877 60.6992 26.0586 61.7949 26.4219 62.3809C26.7852 62.9551 27.541 63.2422 28.6895 63.2422C29.6855 63.2422 30.5234 63.1426 31.2031 62.9434V64.2441ZM41.2051 65.5449C38.8848 65.5449 36.916 64.6895 35.2988 62.9785C33.6934 61.2676 32.8906 59.0762 32.8906 56.4043C32.8906 53.6855 33.6758 51.4707 35.2461 49.7598C36.8281 48.0371 38.8965 47.1758 41.4512 47.1758C43.9355 47.1758 45.9453 48.0137 47.4805 49.6895C49.0273 51.3535 49.8008 53.5039 49.8008 56.1406C49.8008 58.8828 49.0156 61.1387 47.4453 62.9082C45.875 64.666 43.7949 65.5449 41.2051 65.5449ZM41.416 48.5117C39.834 48.5117 38.6211 49.2031 37.7773 50.5859C36.9336 51.957 36.5117 53.7969 36.5117 56.1055C36.5117 58.5547 36.9336 60.5176 37.7773 61.9941C38.6328 63.4707 39.8457 64.209 41.416 64.209C42.916 64.209 44.082 63.4766 44.9141 62.0117C45.7461 60.5469 46.1621 58.6016 46.1621 56.1758C46.1621 53.8086 45.752 51.9395 44.9316 50.5684C44.123 49.1973 42.9512 48.5117 41.416 48.5117ZM61.9824 49.2324C60.4355 49.3145 59.1582 50.1641 58.1504 51.7812V61.8711C58.1504 62.5039 58.3496 62.9668 58.748 63.2598C59.1582 63.5527 60.0664 63.7461 61.4727 63.8398V65H52.332V63.8398L53.1758 63.752C54.3125 63.6699 54.8809 63.1016 54.8809 62.0469V51.3594C54.8809 49.8359 53.9668 49.0449 52.1387 48.9863V47.8262L57.9043 47.4746L58.1504 47.7207V50.1289H58.2383C59.75 48.207 61.3672 47.2461 63.0898 47.2461C63.8281 47.2461 64.4316 47.4863 64.9004 47.9668C65.3691 48.4355 65.6035 49.0859 65.6035 49.918C65.6035 50.5859 65.4395 51.1309 65.1113 51.5527C64.7949 51.9746 64.3613 52.1855 63.8105 52.1855C63.2012 52.1855 62.709 52.0332 62.334 51.7285C61.9707 51.4121 61.7891 51.0254 61.7891 50.5684C61.7891 50.2168 61.8535 49.7715 61.9824 49.2324ZM84.0781 48.7578C83.6797 48.8164 83.2227 49.0215 82.707 49.373C82.1914 49.7246 81.8516 50.041 81.6875 50.3223C81.5234 50.5918 81.002 51.7754 80.123 53.873L77.6973 59.6738C76.0449 63.6699 74.8145 66.4707 74.0059 68.0762C73.1973 69.6934 72.3418 70.8828 71.4395 71.6445C70.5371 72.418 69.6289 72.8047 68.7148 72.8047C67.8594 72.8047 67.1562 72.5996 66.6055 72.1895C66.0664 71.791 65.7969 71.2812 65.7969 70.6602C65.7969 70.0977 65.9434 69.623 66.2363 69.2363C66.541 68.8613 66.9453 68.6738 67.4492 68.6738C68.457 68.6738 69.3711 69.418 70.1914 70.9062C70.707 70.6367 71.3633 69.8809 72.1602 68.6387C72.9688 67.3965 73.6074 66.1602 74.0762 64.9297L68.1699 50.5156C67.7832 49.6602 66.8984 49.0977 65.5156 48.8281V47.6855H73.3906V48.916C72.0664 48.998 71.4043 49.25 71.4043 49.6719C71.4043 49.6953 71.4336 49.7773 71.4922 49.918L71.668 50.4629L75.834 60.7109L79.3672 52.0801C79.4141 51.9395 79.4785 51.7812 79.5605 51.6055C79.8418 50.9727 79.9824 50.4805 79.9824 50.1289C79.9824 49.5312 79.2031 49.0859 77.6445 48.793V47.6855H84.0781V48.7578ZM7.1 113.42C6.476 113.516 6.068 113.564 5.876 113.564C5.396 113.564 4.82 113.468 4.148 113.276C3.836 113.18 3.608 113.072 3.464 112.952C3.32 112.832 3.152 112.652 2.96 112.412C2.792 112.196 2.66 112.028 2.564 111.908C2.132 111.308 1.916 110.78 1.916 110.324C1.916 109.964 2.084 109.832 2.42 109.928C2.66 110.048 2.924 110.288 3.212 110.648C3.5 110.936 3.812 111.14 4.148 111.26C4.484 111.404 4.892 111.476 5.372 111.476C5.54 111.476 5.864 111.452 6.344 111.404C6.92 111.308 7.592 111.128 8.36 110.864C9.128 110.6 9.692 110.324 10.052 110.036C11.204 109.244 12.14 108.608 12.86 108.128C13.604 107.648 14.072 107.348 14.264 107.228C14.312 107.108 14.564 106.964 15.02 106.796L15.992 105.86C16.616 105.188 17.024 104.78 17.216 104.636C17.24 104.468 17.276 104.3 17.324 104.132C17.396 103.94 17.432 103.796 17.432 103.7C17.72 103.388 18.152 102.644 18.728 101.468C19.304 100.268 19.7 99.236 19.916 98.372C20.132 97.244 20.24 96.248 20.24 95.384C20.24 93.92 19.976 92.696 19.448 91.712C18.944 90.704 18.2 89.78 17.216 88.94C16.712 88.532 15.872 88.088 14.696 87.608C13.544 87.104 12.872 86.888 12.68 86.96C12.56 86.984 12.236 87.68 11.708 89.048C11.18 90.392 10.46 92.336 9.548 94.88L8.396 98.084C8.3 98.468 8.192 98.828 8.072 99.164C7.952 99.5 7.856 99.8 7.784 100.064C7.472 100.952 7.316 101.456 7.316 101.576C7.052 101.984 6.836 102.524 6.668 103.196C6.524 103.844 6.356 104.96 6.164 106.544C5.948 107.336 5.852 107.696 5.876 107.624C5.78 108.032 5.696 108.368 5.624 108.632C5.552 108.896 5.48 109.016 5.408 108.992L5.264 109.136C5.264 109.28 5.156 109.352 4.94 109.352C4.748 109.352 4.532 109.304 4.292 109.208C4.052 109.088 3.86 108.956 3.716 108.812C3.62 108.476 3.572 108.236 3.572 108.092C3.572 107.78 3.668 107.3 3.86 106.652C4.052 105.836 4.364 104.696 4.796 103.232C5.252 101.744 5.636 100.532 5.948 99.596C6.116 99.188 6.356 98.42 6.668 97.292C6.932 96.404 7.22 95.492 7.532 94.556C7.868 93.62 8.108 93.032 8.252 92.792C8.3 92.624 8.456 92.144 8.72 91.352C9.008 90.56 9.344 89.684 9.728 88.724L9.98 87.536L9.584 87.356C9.368 87.428 9.176 87.464 9.008 87.464C8.888 87.464 8.756 87.428 8.612 87.356C8.372 87.428 8.036 87.332 7.604 87.068C7.196 86.78 6.968 86.516 6.92 86.276C6.872 86.204 6.836 86.096 6.812 85.952C6.812 85.808 6.812 85.712 6.812 85.664C6.86 85.424 7.34 85.208 8.252 85.016C9.164 84.8 10.16 84.692 11.24 84.692C11.696 84.692 12.044 84.704 12.284 84.728C12.716 84.752 13.124 84.824 13.508 84.944C13.916 85.064 14.408 85.244 14.984 85.484L15.848 85.808C16.616 86.096 17.432 86.6 18.296 87.32C19.184 88.04 19.964 88.892 20.636 89.876C21.332 90.836 21.8 91.82 22.04 92.828C22.112 93.14 22.184 93.572 22.256 94.124C22.328 94.676 22.364 95.168 22.364 95.6C22.364 96.104 22.316 96.416 22.22 96.536C22.148 96.632 22.112 96.752 22.112 96.896C22.112 97.04 22.16 97.124 22.256 97.148C22.208 97.292 22.124 97.556 22.004 97.94C21.884 98.324 21.752 98.732 21.608 99.164C21.464 100.676 20.792 102.452 19.592 104.492C19.472 104.492 19.376 104.516 19.304 104.564C19.232 104.588 19.244 104.612 19.34 104.636C19.34 104.756 19.208 104.984 18.944 105.32C18.872 105.368 18.716 105.548 18.476 105.86C18.26 106.148 18.104 106.328 18.008 106.4C17.984 106.568 17.912 106.712 17.792 106.832C17.672 106.928 17.564 106.976 17.468 106.976C17.468 106.976 17.444 106.988 17.396 107.012C17.372 107.012 17.36 107.048 17.36 107.12C16.928 107.744 16.136 108.512 14.984 109.424C13.856 110.336 12.848 110.984 11.96 111.368C11.72 111.536 11.432 111.692 11.096 111.836C10.784 111.98 10.568 112.076 10.448 112.124C10.256 112.292 9.764 112.52 8.972 112.808C8.204 113.12 7.58 113.324 7.1 113.42ZM30.1001 108.74C29.5001 109.268 28.7801 109.532 27.9401 109.532C27.3401 109.532 26.7641 109.388 26.2121 109.1C25.6841 108.812 25.2401 108.416 24.8801 107.912C24.5681 107.528 24.3401 107.096 24.1961 106.616C24.0521 106.136 23.9801 105.548 23.9801 104.852C23.9801 104.612 24.0041 104.132 24.0521 103.412C24.1241 102.524 24.4121 101.6 24.9161 100.64C25.4441 99.68 26.0921 98.828 26.8601 98.084C27.6281 97.316 28.3841 96.788 29.1281 96.5C29.5121 96.26 29.8601 96.14 30.1721 96.14C30.3401 96.14 30.5081 96.152 30.6761 96.176C30.8441 96.2 31.0241 96.224 31.2161 96.248C31.7441 96.32 32.1401 96.428 32.4041 96.572C32.6921 96.692 32.9321 96.884 33.1241 97.148C33.7241 97.748 34.0241 98.444 34.0241 99.236C33.9281 99.812 33.5561 100.472 32.9081 101.216C32.2601 101.96 31.4801 102.56 30.5681 103.016C30.1361 103.16 29.6441 103.232 29.0921 103.232C28.3481 103.232 27.7481 103.076 27.2921 102.764C27.0761 102.692 26.9081 102.656 26.7881 102.656C26.5721 102.656 26.4041 102.8 26.2841 103.088C26.1881 103.376 26.0921 103.904 25.9961 104.672C25.9721 104.84 25.9601 105.08 25.9601 105.392C25.9601 106.616 26.3681 107.288 27.1841 107.408C27.7361 107.528 28.1321 107.588 28.3721 107.588C28.6601 107.588 28.9841 107.492 29.3441 107.3L30.0281 106.904C30.1721 106.832 30.3041 106.736 30.4241 106.616C30.5441 106.496 30.6521 106.388 30.7481 106.292C30.7961 106.244 30.8681 106.172 30.9641 106.076C31.0601 105.956 31.1441 105.884 31.2161 105.86C31.3121 105.812 31.3961 105.788 31.4681 105.788C31.5641 105.788 31.6721 105.848 31.7921 105.968C31.9121 106.064 32.0081 106.136 32.0801 106.184C32.2961 106.184 32.3441 106.34 32.2241 106.652C32.1041 106.94 31.8401 107.288 31.4321 107.696C31.0481 108.08 30.6041 108.428 30.1001 108.74ZM30.0641 101.108C30.4721 100.94 30.8801 100.64 31.2881 100.208C31.7201 99.776 31.9361 99.416 31.9361 99.128C31.9361 98.84 31.8281 98.6 31.6121 98.408C31.3961 98.216 31.0961 98.12 30.7121 98.12C30.4241 98.12 30.2081 98.144 30.0641 98.192C29.7281 98.288 29.3321 98.552 28.8761 98.984C28.4201 99.392 28.0241 99.812 27.6881 100.244C27.3521 100.676 27.2201 100.928 27.2921 101C27.4121 101.216 27.8801 101.324 28.6961 101.324C29.2481 101.324 29.7041 101.252 30.0641 101.108ZM37.6671 110.144C37.2351 109.976 36.8151 109.736 36.4071 109.424C35.9991 109.088 35.7231 108.8 35.5791 108.56C35.5791 108.512 35.5791 108.428 35.5791 108.308C35.5791 108.188 35.6151 108.116 35.6871 108.092C35.7591 108.044 35.8911 108.02 36.0831 108.02C36.4911 108.02 37.1391 108.068 38.0271 108.164C38.5551 108.164 39.1551 108.104 39.8271 107.984C40.4991 107.84 40.8711 107.684 40.9431 107.516C41.0151 107.516 41.0511 107.504 41.0511 107.48C41.0511 107.432 40.9551 107.312 40.7631 107.12C40.7151 107.12 40.6071 107.084 40.4391 107.012C40.2711 106.916 40.1631 106.868 40.1151 106.868C40.1151 106.772 40.0071 106.652 39.7911 106.508C39.5751 106.34 39.3351 106.196 39.0711 106.076C38.3751 105.5 37.8831 105.08 37.5951 104.816C37.3071 104.528 37.1991 104.324 37.2711 104.204V104.024C37.1031 104.024 36.9111 103.796 36.6951 103.34C36.5031 102.86 36.4071 102.416 36.4071 102.008C36.4071 101.576 36.5871 100.976 36.9471 100.208C37.3311 99.44 37.7631 98.816 38.2431 98.336C38.9151 97.712 39.7791 97.052 40.8351 96.356C41.9151 95.66 42.7671 95.216 43.3911 95.024C43.7991 94.856 44.2071 94.772 44.6151 94.772C44.9991 94.772 45.3231 94.856 45.5871 95.024C45.8991 95.216 46.1991 95.492 46.4871 95.852C46.7991 96.212 47.0031 96.536 47.0991 96.824C47.0991 97.352 47.0391 97.868 46.9191 98.372C46.8231 98.852 46.6671 99.092 46.4511 99.092C46.4271 99.092 46.3911 99.104 46.3431 99.128C46.2951 99.152 46.2711 99.212 46.2711 99.308C46.2711 99.404 46.2231 99.536 46.1271 99.704C46.0311 99.848 45.8991 99.992 45.7311 100.136C45.2031 100.52 44.7711 100.712 44.4351 100.712C44.1711 100.712 44.0031 100.58 43.9311 100.316C43.8831 100.268 43.8351 100.196 43.7871 100.1C43.7391 100.004 43.6791 99.956 43.6071 99.956C43.5831 99.956 43.5351 99.92 43.4631 99.848C43.4151 99.752 43.3911 99.632 43.3911 99.488C43.3911 99.416 43.4151 99.344 43.4631 99.272C43.5351 99.176 43.5831 99.116 43.6071 99.092C43.7511 99.092 43.9911 98.816 44.3271 98.264C44.6631 97.688 44.8311 97.304 44.8311 97.112C44.8311 96.968 44.8071 96.884 44.7591 96.86C44.7351 96.836 44.6271 96.824 44.4351 96.824C42.5631 97.664 41.3991 98.3 40.9431 98.732C40.8711 98.876 40.8111 98.972 40.7631 99.02C40.7391 99.068 40.6791 99.092 40.5831 99.092C40.5831 98.876 39.9471 99.692 38.6751 101.54C38.6271 101.588 38.5671 101.732 38.4951 101.972C38.4471 102.212 38.4231 102.416 38.4231 102.584C38.3751 102.776 38.3511 102.884 38.3511 102.908C38.3511 103.004 38.3871 103.1 38.4591 103.196C38.5551 103.292 38.6751 103.4 38.8191 103.52C38.9631 103.616 39.1071 103.724 39.2511 103.844C40.4991 104.78 41.3631 105.488 41.8431 105.968C42.3471 106.424 42.6471 106.808 42.7431 107.12C43.0551 107.6 43.2111 108.032 43.2111 108.416C43.2111 108.704 43.1031 108.956 42.8871 109.172C42.6711 109.388 42.3471 109.592 41.9151 109.784C41.6511 109.904 41.2071 110 40.5831 110.072C39.9591 110.168 39.3471 110.216 38.7471 110.216C38.4111 110.216 38.0511 110.192 37.6671 110.144ZM53.6806 94.52C53.6086 94.592 53.5366 94.628 53.4646 94.628C53.3686 94.628 53.2126 94.556 52.9966 94.412C52.7566 94.388 52.4326 94.184 52.0246 93.8C51.6406 93.392 51.4486 93.128 51.4486 93.008C51.4006 92.528 51.4726 92.012 51.6646 91.46C51.8566 90.908 52.2046 90.62 52.7086 90.596C52.7806 90.596 52.8766 90.62 52.9966 90.668C53.1166 90.692 53.3206 90.764 53.6086 90.884C53.6566 90.98 53.7526 91.184 53.8966 91.496C54.0646 91.808 54.1846 92.108 54.2566 92.396C54.3526 92.684 54.4006 92.948 54.4006 93.188C54.4006 93.764 54.1606 94.208 53.6806 94.52ZM49.6126 108.884C49.2526 108.884 48.9286 108.656 48.6406 108.2C48.3766 107.744 48.2206 107.288 48.1726 106.832C48.2686 105.92 48.3406 105.272 48.3886 104.888C48.5806 104 48.8806 102.788 49.2886 101.252C49.7206 99.692 49.9846 98.816 50.0806 98.624C50.1526 98.504 50.2606 98.444 50.4046 98.444C50.5486 98.444 50.7046 98.492 50.8726 98.588C51.0406 98.684 51.1846 98.792 51.3046 98.912C51.4966 99.176 51.5926 99.476 51.5926 99.812C51.5926 100.316 51.3526 101.372 50.8726 102.98C50.5366 104.18 50.3206 105.032 50.2246 105.536C50.1286 106.04 50.0926 106.58 50.1166 107.156C50.0926 107.324 50.0446 107.612 49.9726 108.02C49.9246 108.404 49.8766 108.644 49.8286 108.74C49.7806 108.836 49.7086 108.884 49.6126 108.884ZM57.5515 116.768C57.3115 116.792 56.9275 116.732 56.3995 116.588C55.8715 116.468 55.4515 116.336 55.1395 116.192C54.6595 115.832 54.2035 115.292 53.7715 114.572C53.3635 113.876 53.1835 113.36 53.2315 113.024C53.2315 112.928 53.3155 112.88 53.4835 112.88C53.6515 112.88 53.8315 112.928 54.0235 113.024C54.2395 113.12 54.3955 113.24 54.4915 113.384C54.8035 113.792 55.1995 114.152 55.6795 114.464C56.1595 114.776 56.5315 114.908 56.7955 114.86C57.3475 114.764 57.8155 114.488 58.1995 114.032C58.6075 113.576 58.9915 112.94 59.3515 112.124C59.6155 111.404 59.8195 110.744 59.9635 110.144C60.1315 109.544 60.3235 108.776 60.5395 107.84C60.7075 107.072 60.8275 106.556 60.8995 106.292C60.9955 105.836 61.0555 105.524 61.0795 105.356C61.1035 105.188 61.1035 105.092 61.0795 105.068C61.0555 105.044 61.0315 105.02 61.0075 104.996L58.6675 106.256C57.8035 106.544 56.9755 106.688 56.1835 106.688C55.8475 106.688 55.5115 106.64 55.1755 106.544C54.9115 106.424 54.6475 106.112 54.3835 105.608C54.1435 105.104 54.0475 104.672 54.0955 104.312C54.1195 103.976 54.4435 103.28 55.0675 102.224C55.6915 101.168 56.0515 100.652 56.1475 100.676C56.2675 100.676 56.3275 100.556 56.3275 100.316C56.3755 100.1 57.0355 99.488 58.3075 98.48C59.1715 97.688 59.9395 97.1 60.6115 96.716C61.2835 96.308 61.8955 96.08 62.4475 96.032C62.6155 96.056 62.7595 96.068 62.8795 96.068C63.0235 96.068 63.1195 96.068 63.1675 96.068C63.2155 96.092 63.3115 96.152 63.4555 96.248C63.5995 96.32 63.7915 96.404 64.0315 96.5C64.5355 96.716 64.9795 97.148 65.3635 97.796C65.7475 98.444 65.9635 99.092 66.0115 99.74C65.9635 100.268 65.8435 100.784 65.6515 101.288C65.4595 101.792 65.2675 102.032 65.0755 102.008C64.8835 101.984 64.6435 102.068 64.3555 102.26C64.0915 102.452 63.9595 102.596 63.9595 102.692C63.9595 102.956 63.7675 103.304 63.3835 103.736L62.8435 106.256C62.4595 107.96 62.2555 108.932 62.2315 109.172C61.9435 110.3 61.6435 111.26 61.3315 112.052C61.2355 112.724 61.1035 113.228 60.9355 113.564C60.7915 113.924 60.5515 114.32 60.2155 114.752C59.8795 115.328 59.4475 115.796 58.9195 116.156C58.4155 116.516 57.9595 116.72 57.5515 116.768ZM56.0755 104.672C56.0995 104.84 56.3035 104.924 56.6875 104.924C57.3595 104.924 58.0795 104.72 58.8475 104.312C59.0395 104.216 59.2075 104.132 59.3515 104.06C59.4955 103.988 59.6275 103.928 59.7475 103.88C60.1795 103.688 60.5035 103.532 60.7195 103.412C60.9355 103.292 61.0915 103.136 61.1875 102.944C61.4035 102.584 61.6435 101.996 61.9075 101.18C61.9315 101.084 61.9915 100.976 62.0875 100.856C62.2075 100.712 62.3155 100.628 62.4115 100.604H62.5555C62.6755 100.604 62.8675 100.652 63.1315 100.748C63.2515 100.7 63.3355 100.58 63.3835 100.388C63.4315 100.196 63.4435 99.98 63.4195 99.74C63.3955 99.572 63.2635 99.344 63.0235 99.056C62.8075 98.768 62.5435 98.54 62.2315 98.372C62.0875 98.324 61.9795 98.3 61.9075 98.3C61.6675 98.3 61.3915 98.42 61.0795 98.66C60.7675 98.876 60.3475 99.248 59.8195 99.776C59.6995 99.872 59.5915 99.968 59.4955 100.064C59.3995 100.16 59.3035 100.244 59.2075 100.316C58.2475 101.204 57.4555 102.044 56.8315 102.836C56.2315 103.604 55.9795 104.216 56.0755 104.672ZM68.9803 108.416C68.9083 108.416 68.7763 108.356 68.5843 108.236C68.4163 108.116 68.2723 107.996 68.1523 107.876C67.9843 107.708 67.8763 107.528 67.8283 107.336C67.8043 107.144 67.7923 106.7 67.7923 106.004C67.7923 105.26 67.9363 104.444 68.2243 103.556C68.5363 102.668 69.0763 101.384 69.8443 99.704L71.0323 97.184C71.1043 97.016 71.2723 96.776 71.5363 96.464H71.8963C72.0643 96.464 72.2443 96.572 72.4363 96.788C72.6523 97.004 72.8083 97.256 72.9043 97.544C72.9043 97.928 72.8443 98.288 72.7243 98.624C72.6283 98.96 72.3523 99.428 71.8963 100.028C71.7043 100.316 71.4763 100.772 71.2123 101.396C70.9483 102.02 70.7683 102.548 70.6723 102.98C70.6003 103.1 70.5043 103.304 70.3843 103.592C70.2883 103.88 70.1683 104.18 70.0243 104.492L69.8443 105.284L72.2563 102.8C73.3123 101.744 74.1643 100.976 74.8123 100.496C75.4843 100.016 76.0363 99.776 76.4683 99.776C76.9723 99.776 77.3803 100.1 77.6923 100.748C77.9083 101.108 78.0523 101.396 78.1243 101.612C78.1963 101.804 78.2323 102.116 78.2323 102.548C78.2323 102.692 78.2083 103.1 78.1603 103.772V106.004C78.4963 105.932 78.7963 105.836 79.0603 105.716C79.3483 105.596 79.5643 105.512 79.7083 105.464C80.2603 105.224 80.8723 105.08 81.5443 105.032C81.4963 105.44 81.3163 105.884 81.0043 106.364C80.6923 106.844 80.3083 107.252 79.8523 107.588C79.3963 107.9 78.9523 108.056 78.5203 108.056C78.1843 108.056 77.8243 107.9 77.4403 107.588C77.0803 107.276 76.8163 106.928 76.6483 106.544C76.5523 106.28 76.4923 105.956 76.4683 105.572C76.4683 105.188 76.4683 104.648 76.4683 103.952V102.62C76.4683 102.38 76.3963 102.26 76.2523 102.26C76.1563 102.26 75.9283 102.404 75.5683 102.692C75.0883 103.124 74.3083 103.904 73.2283 105.032C72.1963 106.112 71.2963 106.952 70.5283 107.552C69.7843 108.128 69.2683 108.416 68.9803 108.416Z"/>
</svg>