<svg height="219.890082" viewBox="0 0 24.077083 11.64167" width="454.77267" xmlns="http://www.w3.org/2000/svg"><g><path d="m37.63149 18.930317h14.73702v13.01254h6.809572v-31.942857h-6.809572v12.47721h-14.73702v-12.47721h-6.809572v31.942857h6.809572z" transform="matrix(.26458333 0 0 .26458333 .132292 .132292)"/><path d="m18.493151 12.285301c0 3.387168-2.765106 6.14327-6.164168 6.14327-3.3986321 0-6.1645994-2.756102-6.1645994-6.14327 0-3.3863409 2.7659673-6.1424439 6.1645994-6.1424439 3.399062 0 6.164168 2.756103 6.164168 6.1424439zm-15.6848496 19.679087.9879907.78673c2.2611704 1.801629 5.7232892 2.877453 9.2622059 2.877453 7.750745 0 11.55617-3.947553 11.922723-12.404084h.03321v-15.4491888l3.341733-3.3264292-4.487055-4.448869-3.186478 3.1571432c-2.252037-1.9373843-5.141288-3.05287283-8.175416-3.05287283-6.8972542 0-12.507215 5.55945073-12.507215 12.39304463 0 6.834002 5.6099608 12.393862 12.507215 12.393862 2.177731 0 4.278249-.554882 6.133015-1.596768v1.221395c-.118725 4.358501-4.23134 4.85491-6.264608 4.767813-4.0528378-.173784-6.8378924-2.344243-6.8378924-2.344243z" transform="matrix(.26458333 0 0 .26458333 16.442223 2.082652)"/><g transform="matrix(.26458333 0 0 .26458333 .132292 1.107472)"><path d="m12.328767 7.3758473 7.401893-7.3758473 4.926874 4.909867-7.402322 7.375847z"/><path d="m0 19.662581 7.4024932-7.376867 4.9262738 4.910547-7.4016352 7.375168z"/><path d="m17.255127 12.285714 7.402407 7.376528-4.927646 4.909187-7.401121-7.375678z"/><path d="m4.9267889 0 7.4019781 7.3756775-4.9267888 4.9100365-7.4019782-7.376527z"/></g></g></svg>