<svg width="389" height="123" viewBox="0 0 389 123" fill="none" xmlns="http://www.w3.org/2000/svg"><path d="M20.8596 78.2177H13.0515V122.296H7.80809V78.2177H0V73.8521H20.8596V78.2177Z" /><path d="M44.3284 122.296H39.3129V95.3983C39.3129 90.4225 37.2232 87.9346 33.0437 87.9346C30.7639 87.9346 28.7692 88.5683 27.0594 89.8357V122.296H22.044V67.0221H27.0594V86.3151C29.5291 84.766 31.8848 83.9915 34.1265 83.9915C37.6981 83.9915 40.3768 85.1885 42.1626 87.5825C43.6064 89.5541 44.3284 92.0889 44.3284 95.1871V122.296Z" /><path d="M70.7278 102.228L51.4071 105.679C51.977 114.222 55.0927 118.494 60.754 118.494C63.7557 118.494 66.2824 117.766 68.3341 116.311L69.645 120.395C67.3272 122.132 64.2306 123 60.355 123C56.1755 123 52.8889 121.381 50.4952 118.142C47.9495 114.715 46.6767 109.739 46.6767 103.214C46.6767 96.9239 47.8355 92.042 50.1532 88.5683C52.357 85.2824 55.3206 83.6394 59.0442 83.6394C66.9473 83.6394 70.8418 89.8357 70.7278 102.228ZM65.9404 99.6231C65.9404 91.643 63.5847 87.6529 58.8732 87.6529C56.5175 87.6529 54.6747 88.8265 53.3449 91.1736C51.901 93.7084 51.1981 97.4403 51.2361 102.369L65.9404 99.6231Z" /><path d="M90.0388 122.296H84.7954V73.8521H90.0388V122.296Z" /><path d="M116.423 122.296H111.407V95.0462C111.407 90.1174 109.261 87.6529 104.967 87.6529C102.763 87.6529 100.826 88.0989 99.1537 88.9908V122.296H94.1383V86.3151C97.1399 84.5313 100.883 83.6394 105.366 83.6394C109.28 83.6394 112.186 84.8364 114.086 87.2305C115.644 89.202 116.423 91.7603 116.423 94.9054V122.296Z" /><path d="M131.939 88.2162H126.582V122.296H121.566V88.2162H118.033V84.3436H121.566V78.9922C121.566 75.1899 122.459 72.2091 124.245 70.0498C126.069 67.8436 128.634 66.8343 131.939 67.0221V70.9652C128.368 71.1999 126.582 73.6409 126.582 78.2881V84.3436H131.939V88.2162Z" /><path d="M155.181 103.355C155.181 109.223 154.231 113.893 152.332 117.367C150.242 121.122 147.202 123 143.213 123C139.223 123 136.164 121.122 134.037 117.367C132.137 113.893 131.187 109.223 131.187 103.355C131.187 97.3933 132.156 92.6992 134.094 89.2724C136.183 85.5171 139.204 83.6394 143.156 83.6394C147.183 83.6394 150.242 85.5171 152.332 89.2724C154.231 92.6522 155.181 97.3464 155.181 103.355ZM150.166 103.355C150.166 92.84 147.848 87.5825 143.213 87.5825C138.539 87.5825 136.202 92.84 136.202 103.355C136.202 113.588 138.539 118.705 143.213 118.705C147.848 118.705 150.166 113.588 150.166 103.355Z" /><path d="M170.768 83.7098L169.571 88.4275C168.583 88.0519 167.576 87.8642 166.551 87.8642C164.917 87.8642 163.587 88.2867 162.561 89.1316V122.296H157.546V86.3855C160.661 84.414 165.069 83.5221 170.768 83.7098Z" /><path d="M210.907 122.296H205.891V94.9758C205.891 90.1408 203.915 87.7234 199.964 87.7234C197.456 87.7234 195.347 88.85 193.638 91.1032V122.296H188.622V94.6942C188.622 92.5349 188.033 90.8215 186.855 89.5541C185.715 88.2867 184.063 87.6529 181.897 87.6529C179.883 87.6529 178.04 88.0754 176.369 88.9204V122.296H171.353V86.3151C174.317 84.5313 177.869 83.6394 182.011 83.6394C186.304 83.6394 189.439 85.165 191.415 88.2162C193.771 85.165 196.943 83.6394 200.933 83.6394C204.314 83.6394 206.898 84.8364 208.684 87.2305C210.166 89.249 210.907 91.7838 210.907 94.835V122.296Z" /><path d="M234.783 120.324C232.199 122.108 228.799 123 224.581 123C216.792 123 212.898 119.268 212.898 111.804C212.898 107.157 214.569 103.684 217.913 101.383C220.573 99.5526 224.619 98.2852 230.053 97.5811V95.2575C230.053 90.2347 227.792 87.7234 223.27 87.7234C220.915 87.7234 218.445 88.5214 215.861 90.1174L214.665 86.4559C217.438 84.5783 220.573 83.6394 224.068 83.6394C231.212 83.6394 234.783 87.7468 234.783 95.9616V120.324ZM230.053 118.142V100.75C225.759 101.407 222.739 102.416 220.991 103.777C218.787 105.467 217.685 108.096 217.685 111.664C217.685 116.827 220.117 119.409 224.98 119.409C227.108 119.409 228.799 118.986 230.053 118.142Z" /><path d="M250.067 122.085C249.041 122.46 248.129 122.648 247.331 122.648C244.747 122.648 242.772 121.639 241.404 119.62C240.264 117.883 239.694 115.701 239.694 113.072V88.2162H236.16V84.3436H239.694V75.6124L244.709 73.7113V84.3436H250.067V88.2162H244.709V112.931C244.709 116.592 246.001 118.423 248.585 118.423C248.889 118.423 249.383 118.329 250.067 118.142V122.085Z" /><path d="M257.093 122.296H252.078V84.3436H257.093V122.296Z" /><path d="M283.721 103.355C283.721 109.223 282.771 113.893 280.872 117.367C278.782 121.122 275.742 123 271.753 123C267.763 123 264.705 121.122 262.577 117.367C260.677 113.893 259.727 109.223 259.727 103.355C259.727 97.3933 260.696 92.6992 262.634 89.2724C264.724 85.5171 267.744 83.6394 271.696 83.6394C275.723 83.6394 278.782 85.5171 280.872 89.2724C282.771 92.6522 283.721 97.3464 283.721 103.355ZM278.706 103.355C278.706 92.84 276.388 87.5825 271.753 87.5825C267.079 87.5825 264.742 92.84 264.742 103.355C264.742 113.588 267.079 118.705 271.753 118.705C276.388 118.705 278.706 113.588 278.706 103.355Z" /><path d="M308.37 122.296H303.355V95.0462C303.355 90.1174 301.208 87.6529 296.914 87.6529C294.711 87.6529 292.773 88.0989 291.101 88.9908V122.296H286.086V86.3151C289.087 84.5313 292.83 83.6394 297.313 83.6394C301.227 83.6394 304.133 84.8364 306.033 87.2305C307.591 89.202 308.37 91.7603 308.37 94.9054V122.296Z" /><path d="M340.661 122.296H323.62V73.8521H328.863V117.93H340.661V122.296Z" /><path d="M362.326 120.324C359.742 122.108 356.341 123 352.124 123C344.335 123 340.44 119.268 340.44 111.804C340.44 107.157 342.112 103.684 345.456 101.383C348.115 99.5526 352.162 98.2852 357.595 97.5811V95.2575C357.595 90.2347 355.335 87.7234 350.813 87.7234C348.457 87.7234 345.988 88.5214 343.404 90.1174L342.207 86.4559C344.981 84.5783 348.115 83.6394 351.611 83.6394C358.754 83.6394 362.326 87.7468 362.326 95.9616V120.324ZM357.595 118.142V100.75C353.302 101.407 350.281 102.416 348.533 103.777C346.33 105.467 345.228 108.096 345.228 111.664C345.228 116.827 347.659 119.409 352.523 119.409C354.651 119.409 356.341 118.986 357.595 118.142Z" /><path d="M389 102.651C389 108.894 387.822 113.799 385.466 117.367C382.997 121.122 379.52 123 375.037 123C371.123 123 368.064 122.108 365.861 120.324V67.0221H370.819V85.611C372.643 84.4374 374.733 83.8507 377.088 83.8507C380.66 83.8507 383.529 85.564 385.694 88.9908C387.898 92.4175 389 96.9709 389 102.651ZM383.985 102.862C383.985 98.3556 383.358 94.7646 382.104 92.0889C380.66 89.0377 378.57 87.5121 375.835 87.5121C373.935 87.5121 372.263 88.005 370.819 88.9908V118.071C371.807 118.681 373.251 118.986 375.151 118.986C381.04 118.986 383.985 113.612 383.985 102.862Z" /><path d="M262 72.5C262 76.0899 259.09 79 255.5 79C251.91 79 249 76.0899 249 72.5C249 68.9101 251.91 66 255.5 66C259.09 66 262 68.9101 262 72.5Z" /><path d="M260 52C260 58.0751 255.075 63 249 63C242.925 63 238 58.0751 238 52C238 45.9249 242.925 41 249 41C255.075 41 260 45.9249 260 52Z" /><path d="M287 21C287 32.598 277.598 42 266 42C254.402 42 245 32.598 245 21C245 9.40202 254.402 0 266 0C277.598 0 287 9.40202 287 21Z" /><path d="M316 46C316 55.9411 307.941 64 298 64C288.059 64 280 55.9411 280 46C280 36.0589 288.059 28 298 28C307.941 28 316 36.0589 316 46Z" /><path d="M286 66.5C286 72.8513 280.851 78 274.5 78C268.149 78 263 72.8513 263 66.5C263 60.1487 268.149 55 274.5 55C280.851 55 286 60.1487 286 66.5Z" /></svg>