<svg viewBox="0 0 224 188" fill="none" xmlns="http://www.w3.org/2000/svg">
<path d="M142.306 78.9672C107.787 58.1185 91.4985 -5.9339 38.2127 32.3423C-15.0731 70.6185 7.02264 149.258 58.0847 168.277C109.147 187.296 174.843 176.551 193.331 141.22C224.922 80.8488 165.461 92.9527 142.306 78.9672Z" fill="#F0F0F0"/>
<path d="M142.306 78.9672C107.787 58.1185 91.4985 -5.9339 38.2127 32.3423C-15.0731 70.6185 7.02264 149.258 58.0847 168.277C109.147 187.296 174.843 176.551 193.331 141.22C224.922 80.8488 165.461 92.9527 142.306 78.9672Z" fill="#F0F0F0"/>
<path d="M2.28882 153.073C2.28882 153.073 31.7235 123.571 80.886 137.568C130.048 151.564 158.994 139.569 152.89 65.3859C152.89 65.3859 221.989 75.0219 213.13 124.098C202.38 183.659 63.6011 206.385 2.28882 153.073Z" fill="#F0F0F0"/>
<path d="M145.917 74.9659C111.405 54.1173 95.1124 -9.93518 41.8266 28.341C-11.4592 66.6172 10.6365 145.256 61.6996 164.275C112.763 183.294 178.458 172.55 196.946 137.219C228.537 76.8475 169.075 88.9514 145.917 74.9659Z" fill="url(#paint0_linear)"/>
<path d="M145.917 74.9659C111.405 54.1173 95.1124 -9.93518 41.8266 28.341C-11.4592 66.6172 10.6365 145.256 61.6996 164.275C112.763 183.294 178.458 172.55 196.946 137.219C228.537 76.8475 169.075 88.9514 145.917 74.9659Z" fill="url(#paint1_linear)"/>
<path d="M5.90472 149.072C5.90472 149.072 35.3394 119.57 84.5019 133.567C133.664 147.563 162.61 135.567 156.506 61.3846C156.506 61.3846 225.605 71.0207 216.746 120.096C205.994 179.657 67.215 202.384 5.90472 149.072Z" fill="url(#paint2_linear)"/>
<path d="M95.6839 48.2154L95.2175 46.88L94.7511 48.2154C94.5218 48.8082 94.1737 49.3479 93.7281 49.8014C93.2826 50.2548 92.7489 50.6125 92.16 50.8522V50.8522C92.749 51.092 93.2826 51.4496 93.7282 51.903C94.1738 52.3565 94.5219 52.8962 94.7511 53.4891L95.2175 54.8245L95.6839 53.4891C95.9137 52.8961 96.2625 52.3563 96.7088 51.903C97.1551 51.4497 97.6894 51.0925 98.2789 50.8532C97.6892 50.6138 97.1547 50.2562 96.7085 49.8026C96.2622 49.3489 95.9135 48.8088 95.6839 48.2154Z" fill="white"/>
<path d="M112.606 145.381L112.14 144.046L111.679 145.381C111.449 145.974 111.101 146.514 110.656 146.967C110.21 147.421 109.677 147.778 109.088 148.018V148.018C109.677 148.258 110.21 148.616 110.656 149.069C111.101 149.523 111.449 150.062 111.679 150.655L112.145 151.99L112.611 150.655C112.841 150.062 113.189 149.522 113.634 149.069C114.08 148.616 114.614 148.258 115.203 148.018V148.018C114.613 147.779 114.078 147.422 113.632 146.968C113.185 146.515 112.836 145.975 112.606 145.381V145.381Z" fill="white"/>
<path d="M179.874 116.495L179.565 115.614L179.258 116.495C179.107 116.886 178.877 117.242 178.583 117.541C178.289 117.841 177.937 118.077 177.549 118.235V118.235C177.937 118.393 178.289 118.629 178.583 118.928C178.877 119.227 179.107 119.583 179.258 119.974L179.565 120.856L179.874 119.974C180.025 119.583 180.254 119.227 180.548 118.928C180.842 118.629 181.194 118.393 181.583 118.235V118.235C181.194 118.077 180.842 117.841 180.548 117.541C180.254 117.242 180.025 116.886 179.874 116.495Z" fill="white"/>
<path d="M33.1817 72.191L32.8734 71.3098L32.5662 72.191C32.415 72.5822 32.1853 72.9383 31.8914 73.2374C31.5974 73.5366 31.2453 73.7725 30.8568 73.9306V73.9306C31.2453 74.0888 31.5974 74.3247 31.8913 74.6239C32.1853 74.923 32.4149 75.2791 32.5662 75.6702L32.8734 76.5514L33.1817 75.6702C33.3329 75.2791 33.5626 74.923 33.8566 74.6239C34.1505 74.3247 34.5025 74.0888 34.891 73.9306V73.9306C34.5025 73.7724 34.1505 73.5365 33.8566 73.2373C33.5626 72.9382 33.3329 72.5821 33.1817 72.191V72.191Z" fill="white"/>
<path d="M211.328 21.5815H85.5366V96.0711H211.328V21.5815Z" fill="#D5DBDA"/>
<path d="M207.837 23.0377H89.0281V94.6134H207.837V23.0377Z" fill="white"/>
<path d="M198.315 26.3495H97.7394V31.13H198.315V26.3495Z" fill="#EFEFEF"/>
<path d="M106.864 71.8332H101.393V85.6009H106.864V71.8332Z" fill="#FFD04D"/>
<path d="M119.191 59.7469H113.72V85.6009H119.191V59.7469Z" fill="#00BFD8"/>
<path d="M131.518 62.4203H126.047V85.6009H131.518V62.4203Z" fill="#FFD04D"/>
<path d="M143.845 49.3326H138.375V85.6012H143.845V49.3326Z" fill="#00BFD8"/>
<g style="mix-blend-mode:multiply" opacity="0.15">
<g style="mix-blend-mode:multiply" opacity="0.26">
<path d="M116.231 59.7469H113.72V85.6009H116.231V59.7469Z" fill="black"/>
</g>
</g>
<g style="mix-blend-mode:multiply" opacity="0.15">
<g style="mix-blend-mode:multiply" opacity="0.26">
<path d="M103.904 71.8332H101.393V85.6009H103.904V71.8332Z" fill="black"/>
</g>
</g>
<g style="mix-blend-mode:multiply" opacity="0.62">
<g style="mix-blend-mode:multiply" opacity="0.26">
<path d="M140.885 49.3326H138.375V85.6012H140.885V49.3326Z" fill="black"/>
</g>
</g>
<g style="mix-blend-mode:multiply" opacity="0.15">
<g style="mix-blend-mode:multiply" opacity="0.26">
<path d="M128.558 62.4203H126.047V85.6009H128.558V62.4203Z" fill="black"/>
</g>
</g>
<path d="M146.74 89.3909H97.7803V37.1286H98.527V88.6423H146.74V89.3909Z" fill="#D5DBDA"/>
<path d="M102.809 65.3856L102.31 64.8285L115.118 53.2996L126.98 55.8832L139.826 41.5472L140.382 42.0475L127.246 56.7073L115.332 54.1128L102.809 65.3856Z" fill="#D5DBDA"/>
<path d="M141.388 44.1655L137.766 40.6835L142.442 39.4295L141.388 44.1655Z" fill="#D5DBDA"/>
<path d="M155.967 68.5559H151.376V73.1581H155.967V68.5559Z" fill="#00BFD8"/>
<path d="M155.967 76.6194H151.376V81.2217H155.967V76.6194Z" fill="#FFD04D"/>
<path d="M171.784 78.6066H157.232V81.222H171.784V78.6066Z" fill="#EFEFEF"/>
<path d="M171.784 70.5427H157.232V73.1582H171.784V70.5427Z" fill="#EFEFEF"/>
<path d="M182.966 68.5559H178.375V73.1581H182.966V68.5559Z" fill="#00BFD8"/>
<path d="M182.966 76.6194H178.375V81.2217H182.966V76.6194Z" fill="#FFD04D"/>
<path d="M198.783 78.6066H184.231V81.222H198.783V78.6066Z" fill="#EFEFEF"/>
<path d="M198.783 70.5427H184.231V73.1582H198.783V70.5427Z" fill="#EFEFEF"/>
<path d="M198.315 40.2868H155.295V41.2698H198.315V40.2868Z" fill="#EFEFEF"/>
<path d="M198.315 42.666H151.917V43.649H198.315V42.666Z" fill="#EFEFEF"/>
<path d="M198.315 45.0452H151.917V46.0282H198.315V45.0452Z" fill="#EFEFEF"/>
<path d="M198.315 47.4241H151.917V48.4071H198.315V47.4241Z" fill="#EFEFEF"/>
<path d="M198.315 49.8033H151.917V50.7863H198.315V49.8033Z" fill="#EFEFEF"/>
<path d="M198.315 52.1825H151.917V53.1655H198.315V52.1825Z" fill="#EFEFEF"/>
<path d="M198.315 54.5617H151.917V55.5447H198.315V54.5617Z" fill="#EFEFEF"/>
<path d="M198.315 56.9409H151.917V57.9239H198.315V56.9409Z" fill="#EFEFEF"/>
<path d="M198.315 59.3199H158.538V60.3028H198.315V59.3199Z" fill="#EFEFEF"/>
<path d="M214.026 20.9787C214.026 21.2364 213.924 21.4835 213.742 21.6657C213.56 21.8479 213.314 21.9502 213.057 21.9502H83.8075C83.6803 21.9502 83.5544 21.9251 83.4369 21.8763C83.3194 21.8274 83.2126 21.7559 83.1227 21.6657C83.0328 21.5755 82.9614 21.4684 82.9128 21.3505C82.8642 21.2326 82.8391 21.1063 82.8392 20.9787V20.9787C82.839 20.8511 82.864 20.7247 82.9126 20.6067C82.9612 20.4888 83.0325 20.3816 83.1224 20.2912C83.2123 20.2009 83.3191 20.1293 83.4367 20.0804C83.5542 20.0315 83.6803 20.0064 83.8075 20.0064H213.057C213.314 20.0064 213.56 20.1087 213.742 20.2909C213.924 20.4731 214.026 20.7202 214.026 20.9779V20.9779V20.9787Z" fill="#66341B"/>
<path d="M214.026 96.6728C214.026 96.9304 213.924 97.1775 213.742 97.3597C213.56 97.5419 213.314 97.6442 213.057 97.6442H83.8075C83.6803 97.6442 83.5544 97.6191 83.4369 97.5703C83.3194 97.5215 83.2126 97.4499 83.1227 97.3597C83.0328 97.2695 82.9614 97.1624 82.9128 97.0445C82.8642 96.9266 82.8391 96.8003 82.8392 96.6728V96.6728C82.8391 96.5452 82.8642 96.4189 82.9128 96.301C82.9614 96.1831 83.0328 96.076 83.1227 95.9858C83.2126 95.8956 83.3194 95.824 83.4369 95.7752C83.5544 95.7264 83.6803 95.7013 83.8075 95.7013H213.057C213.314 95.7013 213.56 95.8036 213.742 95.9858C213.924 96.168 214.026 96.4151 214.026 96.6728V96.6728Z" fill="#66341B"/>
<path d="M72.4649 65.1276C73.3207 62.6523 74.111 60.0506 75.4533 61.3646C76.8654 62.7478 76.7523 62.5808 76.2395 64.4999C75.7267 66.419 71.7448 67.2098 72.4649 65.1276Z" fill="#FFE1BD"/>
<path d="M73.9979 61.5891C74.4234 60.4108 75.1217 59.0649 75.8398 58.5087C76.5579 57.9524 75.4699 59.9022 75.2128 60.8149C74.9556 61.7277 73.6403 62.5802 73.9979 61.5891Z" fill="#FFE1BD"/>
<path d="M72.8429 75.0061C73.849 71.2213 74.3518 66.2746 74.3518 66.2746L72.467 65.0025C72.467 65.0025 68.6303 72.9082 66.557 78.9097L55.8641 76.1574L54.5607 75.891L58.0401 82.8607C58.0401 82.8607 68.3388 84.3638 68.9716 84.0088C69.6043 83.6537 71.8184 78.8592 72.8429 75.0061Z" fill="#F4F4F4"/>
<path d="M68.9712 84.0085C68.3385 84.3636 58.0398 82.8604 58.0398 82.8604L54.5604 75.8913L55.8635 76.1576C56.8241 76.5641 58.3805 78.1238 59.6443 79.7808C60.5568 80.9772 61.0596 81.4028 62.4383 81.9212C64.547 82.714 66.7878 83.2763 67.6298 83.3366C69.0531 83.4316 69.1923 83.5013 69.4961 83.0828C69.516 83.2727 69.4761 83.4642 69.382 83.6302C69.2879 83.7962 69.1442 83.9285 68.9712 84.0085V84.0085Z" fill="#EAEAEA"/>
<path d="M43.7951 96.9346C44.468 98.6684 44.6149 100.563 44.2174 102.38C43.4174 105.989 44.3279 106.231 44.3279 106.231C44.3279 106.231 49.2074 109.336 53.2657 110.605C56.1742 111.512 58.6531 111.359 58.5841 108.14L58.5818 108.096C58.5767 107.9 58.5721 107.713 58.5675 107.531C58.4304 100.296 59.9353 99.9278 60.3063 91.8261C60.6891 83.5148 58.4739 78.879 56.2784 76.8683C54.0797 74.8623 51.0791 74.7876 45.4345 76.1252C41.1944 77.1266 39.7977 78.2547 39.8321 81.4C39.882 82.7006 40.0345 83.9952 40.2882 85.2717C40.9885 89.2299 42.6601 93.9817 43.7951 96.9346Z" fill="#F4F4F4"/>
<path d="M54.0351 79.1347C54.0351 79.1347 58.4332 93.5878 57.5534 100.511L55.9331 103.468L54.1616 100.245C54.1616 100.245 55.6021 86.4029 52.8445 79.3798L54.0351 79.1347Z" fill="#3A3A3A"/>
<path d="M43.7951 96.9346C44.468 98.6683 44.6149 100.563 44.2174 102.38C43.4174 105.989 44.3279 106.231 44.3279 106.231C44.3279 106.231 49.2074 109.336 53.2657 110.605L57.0578 110.245L58.5753 109.049L58.5813 108.095C58.5761 107.9 58.5715 107.713 58.567 107.531C56.6581 107.677 54.7393 107.626 52.8405 107.381C50.9185 107.142 49.0329 106.669 47.2255 105.971C46.7477 105.79 46.3482 105.447 46.096 105.002C45.8439 104.557 45.755 104.037 45.8449 103.533C46.1549 101.867 46.3305 100.18 46.37 98.486C46.3585 96.893 45.6227 94.2007 45.0211 92.2575C44.5693 90.7674 44.3979 89.2061 44.5158 87.6532C44.6258 85.9056 44.6243 84.1528 44.5115 82.4054L41.5051 80.7731L39.8307 81.3985C39.881 82.6997 40.034 83.9948 40.2882 85.2717C40.9886 89.2299 42.6601 93.9817 43.7951 96.9346Z" fill="#E2E2E2"/>
<path d="M43.7329 112.289C43.3855 112.347 42.4974 110.784 42.4974 110.784L42.8696 110.288C43.0801 110.008 43.3735 109.802 43.7079 109.699L43.7684 109.68C43.9142 109.634 44.071 109.636 44.2157 109.686C44.3604 109.736 44.4854 109.83 44.5723 109.957C44.8275 110.336 45.2209 110.768 45.6784 110.751H45.6864C45.7017 110.758 45.7183 110.76 45.7348 110.759C46.1394 110.767 44.0802 112.232 43.7329 112.289Z" fill="#F4D5B5"/>
<path d="M57.431 62.0007C57.431 62.0007 57.8076 63.0552 57.2383 63.8934L54.9111 60.736L56.5343 60.7211L57.431 62.0007Z" fill="#632F00"/>
<path d="M44.7923 66.1773C44.8951 70.2502 48.4 72.6108 48.4 72.6108L48.1658 76.3178L50.5299 77.854L52.1522 78.9068L53.0833 76.9564L53.211 74.5666C53.2264 74.296 53.3303 74.038 53.5067 73.8327C53.6831 73.6273 53.9222 73.4859 54.1868 73.4305C55.0802 73.2135 55.8852 72.7257 56.4923 72.0336C56.5459 71.9765 56.5951 71.9155 56.6394 71.851L56.6449 71.8479C58.1813 69.7494 58.7637 61.7128 53.5034 59.4312C48.0724 57.0689 44.6864 62.0986 44.7923 66.1773Z" fill="#FFE1BD"/>
<path d="M50.6888 75.6306L50.5296 77.854L52.1519 78.9068L53.083 76.9564L53.2107 74.5666C53.226 74.296 53.33 74.038 53.5064 73.8327C53.6828 73.6273 53.9218 73.4859 54.1865 73.4305C55.0799 73.2135 55.8849 72.7257 56.4919 72.0336C56.5455 71.9765 56.5947 71.9155 56.6391 71.851C55.6157 72.411 54.4909 72.76 53.331 72.8774C52.6391 72.9547 51.9961 73.2723 51.5134 73.7752C51.0308 74.2782 50.739 74.9346 50.6888 75.6306V75.6306Z" fill="#E8C5A0"/>
<path d="M50.4647 67.4327C50.2591 67.5171 50.0639 67.1985 50.0639 67.1985C50.0639 67.1985 48.9234 64.631 48.5309 64.2375C47.8297 63.5254 46.1753 63.5911 46.0448 65.7929C45.942 67.4982 47.9514 71.134 48.5684 72.202C48.6154 72.2863 48.6308 72.3847 48.612 72.4794C48.5931 72.5741 48.5412 72.6589 48.4656 72.7187C48.3987 72.7644 48.3218 72.7934 48.2414 72.8031H48.2128C48.1171 72.805 48.024 72.7717 47.9511 72.7095C46.652 71.5663 40.9316 66.0662 45.4741 60.8939C45.4741 60.8939 49.0818 61.1281 49.6335 62.871C50.0275 64.2226 50.343 65.5961 50.5784 66.9844C50.5784 66.9844 50.6797 67.3377 50.4647 67.4327Z" fill="#8C4200"/>
<path d="M57.4311 62.0007C57.4311 62.0007 54.2739 59.5322 49.4792 62.5394L45.5528 61.5348C45.5528 61.5348 45.3876 61.4811 45.4747 60.8916C45.5617 60.302 45.9955 54.5152 52.8729 55.816C56.8273 56.564 59.2493 59.3112 57.4311 62.0007Z" fill="#8C4200"/>
<path d="M54.3402 77.9047L54.3173 78.0942C54.2738 78.4529 54.1789 78.8034 54.0357 79.135V79.135L52.8448 79.3794L51.8074 78.6041L52.9972 77.2173L53.1819 77.2644C53.6084 77.3734 54.0008 77.5878 54.3233 77.8881L54.3402 77.9047Z" fill="#606060"/>
<path d="M48.1941 74.5901C47.7331 74.8943 47.3441 75.296 47.0545 75.767C47.5549 75.9954 48.0423 76.2511 48.5147 76.5331C49.1358 76.9131 52.1198 79.0262 52.1198 79.0262L52.9974 77.2196C52.9974 77.2196 49.8799 75.0637 48.1941 74.5901Z" fill="#E2E2E2"/>
<path d="M52.9968 77.2182C52.9968 77.2182 54.041 77.5761 54.3617 78.358C54.3617 78.358 54.8957 77.3322 54.2134 75.5064C53.9098 75.2167 53.569 74.9689 53.2001 74.7696L52.9968 77.2182Z" fill="#E2E2E2"/>
<path d="M44.6976 109.737C44.9144 110.021 45.1551 110.285 45.417 110.527C45.5814 110.618 45.6095 110.425 45.5474 110.288C45.4852 110.152 44.7228 109.552 44.6976 109.737Z" fill="#E5BB98"/>
<path d="M48.2403 72.8017H48.2116C48.1159 72.8036 48.0228 72.7703 47.9499 72.7081C46.6509 71.5649 40.9305 66.0648 45.473 60.8925C45.344 61.432 45.2999 61.9883 45.3421 62.5415C45.3421 62.5415 42.4451 67.2359 48.2403 72.8017Z" fill="#632F00"/>
<path d="M41.7395 177.52C41.9875 178.475 41.893 178.816 41.9906 179.438C42.1123 180.21 42.8192 180.491 43.229 181.124C43.6802 181.822 44.3888 182.941 41.621 182.998C38.6578 183.057 36.9024 182.852 37.4049 181.172C37.9074 179.493 38.0062 178.754 37.9712 178.207C37.9363 177.659 37.9727 177.089 38.3074 176.76C38.6421 176.431 41.3026 175.841 41.7395 177.52Z" fill="#8C4200"/>
<path d="M42.3654 124.136C42.3654 124.136 37.6878 116.652 44.3279 106.23C44.3279 106.23 49.5028 108.553 53.6468 108.833C56.9108 109.054 58.5669 108.715 58.5669 108.715C58.5669 108.715 58.8418 118.735 58.8532 124.136H42.3654V124.136Z" fill="#3A3A3A"/>
<path d="M45.5178 145.884C46.7973 140.474 41.4867 139.522 39.81 143.435C37.4381 148.971 37.6268 173.284 37.7536 176.816C37.7699 177.278 38.0113 177.191 38.269 177.098C39.0246 176.824 39.6579 176.716 39.9583 176.78C40.5609 176.968 41.1448 177.211 41.7025 177.507C42.2016 172.697 44.2797 151.122 45.5178 145.884Z" fill="#3A3A3A"/>
<path d="M50.2931 124.866C50.8537 118.146 48.2958 112.925 44.2887 115.146C42.602 116.08 41.9847 117.948 41.7585 119.707C41.5323 121.467 40.2905 139.75 39.8556 143.054C38.8752 150.502 44.5289 148.495 45.1422 146.431C46.6895 141.219 49.9876 128.527 50.2931 124.866Z" fill="#3A3A3A"/>
<path d="M59.7328 145.535C59.9427 140.492 55.7355 140.784 54.0376 144.702C50.3701 153.167 54.0642 171.19 54.8172 179.691C55.6393 178.323 57.1974 177.86 57.5634 177.889C57.7434 177.906 57.9178 177.962 58.0755 178.05C58.2332 178.139 58.3708 178.26 58.4796 178.405C58.359 167.976 59.5078 150.927 59.7328 145.535Z" fill="#3A3A3A"/>
<path d="M54.2263 146.082C54.8534 148.141 60.2557 150.524 59.6913 143.029C59.4411 139.704 58.7751 121.348 58.6454 119.578C58.5157 117.809 58.2216 115.222 57.3684 114.9C53.1022 113.285 48.9655 118.564 50.0881 125.208C50.8374 129.65 52.9253 141.811 54.2263 146.082Z" fill="#3A3A3A"/>
<path d="M58.4642 178.557C58.6881 178.994 59.7595 180.003 61.2446 180.668C62.7298 181.333 65.875 181.644 64.1273 182.23C62.3796 182.816 60.3416 182.459 59.3085 182.295C58.232 182.144 57.1453 182.078 56.0585 182.098C54.4525 182.087 54.4402 181.988 54.6555 180.173C54.9547 177.674 57.7418 177.145 58.4642 178.557Z" fill="#8C4200"/>
<path d="M43.4397 108.245L44.264 109.41C44.6994 109.355 45.1411 109.434 45.5301 109.638C45.919 109.842 46.2365 110.16 46.4401 110.549C47.1378 111.919 44.6694 113.634 43.9677 113.002C43.2659 112.369 41.7398 109.445 41.7398 109.445L43.4397 108.245Z" fill="#FFE1BD"/>
<path d="M37.2732 104.551C38.9031 106.266 40.4286 108.078 41.8415 109.976L42.267 109.689L43.8958 108.578C43.8958 108.578 40.5545 101.563 39.605 98.1381C39.1984 96.7017 38.5318 95.3525 37.6383 94.1579C37.7019 94.0967 37.7611 94.0362 37.8244 93.9707C40.2464 91.3855 42.1341 88.0519 43.5703 86.0094C44.2636 85.0269 44.7328 83.9035 44.9446 82.7188C45.0859 81.9166 45.0938 81.0965 44.9678 80.2917C44.7628 79.011 44.2257 77.8313 42.9896 77.527C42.5376 77.416 42.062 77.4519 41.6316 77.6295C41.1493 77.8273 40.7419 78.1734 40.4683 78.618C38.5803 81.6801 33.2324 89.969 32.3915 92.0135C32.2523 92.3489 32.1561 92.7006 32.1051 93.0603C32.08 93.1788 32.0609 93.2986 32.0479 93.4191C31.7232 96.7727 35.0445 102.298 37.2732 104.551Z" fill="#F4F4F4"/>
<path d="M37.2732 104.551C38.9031 106.266 40.4286 108.078 41.8415 109.976L42.267 109.689C42.267 109.689 39.8152 106.265 38.6565 104.877C36.8813 102.753 35.6326 101.096 34.5735 99.1451C33.5144 97.1941 33.0156 93.4331 33.5768 92.3772C34.1334 91.3217 37.2615 86.6584 37.9324 85.762C38.6035 84.8699 44.0931 79.379 42.5172 77.8488C42.3936 77.7514 42.2507 77.6815 42.0981 77.6438C41.9454 77.606 41.7865 77.6013 41.6319 77.6298C41.1495 77.8275 40.7421 78.1735 40.4683 78.6181C38.5803 81.6801 33.2324 89.969 32.3915 92.0135C32.2523 92.3489 32.1561 92.7006 32.1051 93.0603C32.08 93.1788 32.0609 93.2986 32.0479 93.4191C31.7232 96.7727 35.0445 102.298 37.2732 104.551Z" fill="#EAEAEA"/>
<path d="M46.0215 109.474C46.0215 109.474 45.267 112.142 41.9145 113.675C39.0226 114.998 46.5452 115.755 46.7129 115.46C46.8807 115.166 48.3264 110.298 48.3264 110.298L46.0215 109.474Z" fill="#3A3A3A"/>
<defs>
<linearGradient id="paint0_linear" x1="11.0939" y1="94.9763" x2="205.993" y2="94.9763" gradientUnits="userSpaceOnUse">
<stop stop-color="#00BFC2"/>
<stop offset="0.246" stop-color="#00BBC5"/>
<stop offset="0.49" stop-color="#00AFCF"/>
<stop offset="0.732" stop-color="#009BDF"/>
<stop offset="0.972" stop-color="#0080F5"/>
<stop offset="1" stop-color="#007CF8"/>
</linearGradient>
<linearGradient id="paint1_linear" x1="11.0939" y1="94.9763" x2="205.993" y2="94.9763" gradientUnits="userSpaceOnUse">
<stop stop-color="#00BFC2"/>
<stop offset="0.246" stop-color="#00BBC5"/>
<stop offset="0.49" stop-color="#00AFCF"/>
<stop offset="0.732" stop-color="#009BDF"/>
<stop offset="0.972" stop-color="#0080F5"/>
<stop offset="1" stop-color="#007CF8"/>
</linearGradient>
<linearGradient id="paint2_linear" x1="1254.29" y1="14207.1" x2="46003.9" y2="14207.1" gradientUnits="userSpaceOnUse">
<stop stop-color="#00BFC2"/>
<stop offset="0.246" stop-color="#00BBC5"/>
<stop offset="0.49" stop-color="#00AFCF"/>
<stop offset="0.732" stop-color="#009BDF"/>
<stop offset="0.972" stop-color="#0080F5"/>
<stop offset="1" stop-color="#007CF8"/>
</linearGradient>
</defs>
</svg>
